solid Tricorder_BottomEnclosure_rev2
facet normal 1.0 -1.3877787807814457e-17 0.0
  outer loop
    vertex 0.2999999999999656 97.3 27.999999999999993
    vertex 0.2999999999999656 0.29999999999999927 0.3
    vertex 0.2999999999999656 97.3 0.3
  endloop
endfacet
facet normal 1.0 -1.3877787807814457e-17 0.0
  outer loop
    vertex 0.2999999999999656 0.29999999999999927 0.3
    vertex 0.2999999999999656 97.3 27.999999999999993
    vertex 0.2999999999999656 0.29999999999999927 27.999999999999993
  endloop
endfacet
facet normal 6.437105032875402e-18 1.0 -5.212054740141639e-18
  outer loop
    vertex 0.2999999999999656 0.29999999999999927 0.3
    vertex 64.99999999999997 0.29999999999999893 27.999999999999993
    vertex 64.99999999999997 0.29999999999999893 0.3
  endloop
endfacet
facet normal 6.437105032875402e-18 1.0 -5.212054740141639e-18
  outer loop
    vertex 64.99999999999997 0.29999999999999893 27.999999999999993
    vertex 0.2999999999999656 0.29999999999999927 0.3
    vertex 47.49999999999997 0.2999999999999992 21.999999999999993
  endloop
endfacet
facet normal 6.437105032875402e-18 1.0 -5.212054740141639e-18
  outer loop
    vertex 47.49999999999997 0.2999999999999992 21.999999999999993
    vertex 0.2999999999999656 0.29999999999999927 0.3
    vertex 28.79999999999997 0.29999999999999943 21.999999999999993
  endloop
endfacet
facet normal 6.437105032875402e-18 1.0 -5.212054740141639e-18
  outer loop
    vertex 28.79999999999997 0.29999999999999943 21.999999999999993
    vertex 0.2999999999999656 0.29999999999999927 0.3
    vertex 28.79999999999997 0.29999999999999943 27.999999999999993
  endloop
endfacet
facet normal 6.437105032875402e-18 1.0 -5.212054740141639e-18
  outer loop
    vertex 28.79999999999997 0.29999999999999943 27.999999999999993
    vertex 0.2999999999999656 0.29999999999999927 0.3
    vertex 0.2999999999999656 0.29999999999999927 27.999999999999993
  endloop
endfacet
facet normal 6.437105032875402e-18 1.0 -5.212054740141639e-18
  outer loop
    vertex 47.49999999999997 0.2999999999999992 27.999999999999993
    vertex 64.99999999999997 0.29999999999999893 27.999999999999993
    vertex 47.49999999999997 0.2999999999999992 21.999999999999993
  endloop
endfacet
facet normal -1.3877787807814457e-17 -1.0 0.0
  outer loop
    vertex -3.3839597790574766e-14 -1.5126788710517746e-16 27.999999999999993
    vertex 28.79999999999997 -5.509481759702339e-16 21.999999999999993
    vertex 28.79999999999997 -5.509481759702339e-16 27.999999999999993
  endloop
endfacet
facet normal -1.3877787807814457e-17 -1.0 0.0
  outer loop
    vertex 47.49999999999997 -8.104628079763642e-16 27.999999999999993
    vertex 65.29999999999997 -1.0574874309554614e-15 0.0
    vertex 65.29999999999997 -1.0574874309554614e-15 27.999999999999993
  endloop
endfacet
facet normal -1.3877787807814457e-17 -1.0 0.0
  outer loop
    vertex 65.29999999999997 -1.0574874309554614e-15 0.0
    vertex 47.49999999999997 -8.104628079763642e-16 27.999999999999993
    vertex 47.49999999999997 -8.104628079763642e-16 21.999999999999993
  endloop
endfacet
facet normal -1.3877787807814457e-17 -1.0 0.0
  outer loop
    vertex 65.29999999999997 -1.0574874309554614e-15 0.0
    vertex 47.49999999999997 -8.104628079763642e-16 21.999999999999993
    vertex -3.3839597790574766e-14 -1.5126788710517746e-16 0.0
  endloop
endfacet
facet normal -1.3877787807814457e-17 -1.0 0.0
  outer loop
    vertex -3.3839597790574766e-14 -1.5126788710517746e-16 0.0
    vertex 47.49999999999997 -8.104628079763642e-16 21.999999999999993
    vertex 28.79999999999997 -5.509481759702339e-16 21.999999999999993
  endloop
endfacet
facet normal -1.3877787807814457e-17 -1.0 0.0
  outer loop
    vertex -3.3839597790574766e-14 -1.5126788710517746e-16 0.0
    vertex 28.79999999999997 -5.509481759702339e-16 21.999999999999993
    vertex -3.3839597790574766e-14 -1.5126788710517746e-16 27.999999999999993
  endloop
endfacet
facet normal 1.0 -1.3877787807814457e-17 0.0
  outer loop
    vertex 65.29999999999997 97.6 27.999999999999993
    vertex 65.29999999999997 -1.0574874309554614e-15 0.0
    vertex 65.29999999999997 97.6 0.0
  endloop
endfacet
facet normal 1.0 -1.3877787807814457e-17 0.0
  outer loop
    vertex 65.29999999999997 -1.0574874309554614e-15 0.0
    vertex 65.29999999999997 97.6 27.999999999999993
    vertex 65.29999999999997 -1.0574874309554614e-15 27.999999999999993
  endloop
endfacet
facet normal 1.3877787807814457e-17 1.0 0.0
  outer loop
    vertex 65.29999999999997 97.6 0.0
    vertex 58.99999999999997 97.6 0.3
    vertex 65.29999999999997 97.6 27.999999999999993
  endloop
endfacet
facet normal 1.3877787807814457e-17 1.0 0.0
  outer loop
    vertex 58.99999999999997 97.6 0.3
    vertex 65.29999999999997 97.6 0.0
    vertex -3.3839597790574766e-14 97.6 0.0
  endloop
endfacet
facet normal 1.3877787807814457e-17 1.0 0.0
  outer loop
    vertex 58.99999999999997 97.6 0.3
    vertex -3.3839597790574766e-14 97.6 0.0
    vertex 49.99999999999997 97.6 0.3
  endloop
endfacet
facet normal 1.3877787807814457e-17 1.0 0.0
  outer loop
    vertex 49.99999999999997 97.6 0.3
    vertex -3.3839597790574766e-14 97.6 0.0
    vertex 49.99999999999997 97.6 4.3
  endloop
endfacet
facet normal 1.3877787807814457e-17 1.0 0.0
  outer loop
    vertex 65.29999999999997 97.6 27.999999999999993
    vertex 58.99999999999997 97.6 4.3
    vertex -3.3839597790574766e-14 97.6 27.999999999999993
  endloop
endfacet
facet normal 1.3877787807814457e-17 1.0 0.0
  outer loop
    vertex 58.99999999999997 97.6 4.3
    vertex 65.29999999999997 97.6 27.999999999999993
    vertex 58.99999999999997 97.6 0.3
  endloop
endfacet
facet normal 1.3877787807814457e-17 1.0 0.0
  outer loop
    vertex -3.3839597790574766e-14 97.6 27.999999999999993
    vertex 58.99999999999997 97.6 4.3
    vertex 49.99999999999997 97.6 4.3
  endloop
endfacet
facet normal 1.3877787807814457e-17 1.0 0.0
  outer loop
    vertex -3.3839597790574766e-14 97.6 27.999999999999993
    vertex 49.99999999999997 97.6 4.3
    vertex -3.3839597790574766e-14 97.6 0.0
  endloop
endfacet
facet normal 1.0 -1.3877787807814457e-17 0.0
  outer loop
    vertex 49.99999999999997 97.6 4.3
    vertex 49.99999999999997 97.3 0.3
    vertex 49.99999999999997 97.6 0.3
  endloop
endfacet
facet normal 1.0 -1.3877787807814457e-17 0.0
  outer loop
    vertex 49.99999999999997 97.3 0.3
    vertex 49.99999999999997 97.6 4.3
    vertex 49.99999999999997 97.3 4.3
  endloop
endfacet
facet normal -1.0 1.3877787807814457e-17 0.0
  outer loop
    vertex -3.3839597790574766e-14 -1.5126788710517746e-16 27.999999999999993
    vertex -3.3839597790574766e-14 97.6 0.0
    vertex -3.3839597790574766e-14 -1.5126788710517746e-16 0.0
  endloop
endfacet
facet normal -1.0 1.3877787807814457e-17 0.0
  outer loop
    vertex -3.3839597790574766e-14 97.6 0.0
    vertex -3.3839597790574766e-14 -1.5126788710517746e-16 27.999999999999993
    vertex -3.3839597790574766e-14 97.6 27.999999999999993
  endloop
endfacet
facet normal 0.0 0.0 1.0
  outer loop
    vertex 58.99999999999997 97.6 0.3
    vertex 49.99999999999997 97.3 0.3
    vertex 58.99999999999997 97.3 0.3
  endloop
endfacet
facet normal 0.0 0.0 1.0
  outer loop
    vertex 49.99999999999997 97.3 0.3
    vertex 58.99999999999997 97.6 0.3
    vertex 49.99999999999997 97.6 0.3
  endloop
endfacet
facet normal 0.0 0.0 1.0
  outer loop
    vertex 64.99999999999997 0.29999999999999893 0.3
    vertex 0.2999999999999656 97.3 0.3
    vertex 0.2999999999999656 0.29999999999999927 0.3
  endloop
endfacet
facet normal 0.0 0.0 1.0
  outer loop
    vertex 0.2999999999999656 97.3 0.3
    vertex 64.99999999999997 0.29999999999999893 0.3
    vertex 64.99999999999997 97.3 0.3
  endloop
endfacet
facet normal 0.0 0.0 1.0
  outer loop
    vertex 0.2999999999999656 97.3 0.3
    vertex 64.99999999999997 97.3 0.3
    vertex 58.99999999999997 97.3 0.3
  endloop
endfacet
facet normal 0.0 0.0 1.0
  outer loop
    vertex 0.2999999999999656 97.3 0.3
    vertex 58.99999999999997 97.3 0.3
    vertex 49.99999999999997 97.3 0.3
  endloop
endfacet
facet normal -1.0 1.9328753946760134e-17 0.0
  outer loop
    vertex 64.99999999999997 0.29999999999999893 27.999999999999993
    vertex 64.99999999999997 97.3 0.3
    vertex 64.99999999999997 0.29999999999999893 0.3
  endloop
endfacet
facet normal -1.0 1.9328753946760134e-17 0.0
  outer loop
    vertex 64.99999999999997 97.3 0.3
    vertex 64.99999999999997 0.29999999999999893 27.999999999999993
    vertex 64.99999999999997 97.3 27.999999999999993
  endloop
endfacet
facet normal 0.0 0.0 -1.0
  outer loop
    vertex -3.3839597790574766e-14 97.6 0.0
    vertex 65.29999999999997 -1.0574874309554614e-15 0.0
    vertex -3.3839597790574766e-14 -1.5126788710517746e-16 0.0
  endloop
endfacet
facet normal 0.0 0.0 -1.0
  outer loop
    vertex 65.29999999999997 -1.0574874309554614e-15 0.0
    vertex -3.3839597790574766e-14 97.6 0.0
    vertex 65.29999999999997 97.6 0.0
  endloop
endfacet
facet normal 0.0 0.0 -1.0
  outer loop
    vertex 49.99999999999997 97.6 4.3
    vertex 58.99999999999997 97.3 4.3
    vertex 49.99999999999997 97.3 4.3
  endloop
endfacet
facet normal 0.0 0.0 -1.0
  outer loop
    vertex 58.99999999999997 97.3 4.3
    vertex 49.99999999999997 97.6 4.3
    vertex 58.99999999999997 97.6 4.3
  endloop
endfacet
facet normal -1.0 1.3877787807814457e-17 0.0
  outer loop
    vertex 58.99999999999997 97.3 4.3
    vertex 58.99999999999997 97.6 0.3
    vertex 58.99999999999997 97.3 0.3
  endloop
endfacet
facet normal -1.0 1.3877787807814457e-17 0.0
  outer loop
    vertex 58.99999999999997 97.6 0.3
    vertex 58.99999999999997 97.3 4.3
    vertex 58.99999999999997 97.6 4.3
  endloop
endfacet
facet normal 1.0 -1.3877787807814457e-17 0.0
  outer loop
    vertex 28.79999999999997 0.29999999999999943 27.999999999999993
    vertex 28.79999999999997 -5.509481759702339e-16 21.999999999999993
    vertex 28.79999999999997 0.29999999999999943 21.999999999999993
  endloop
endfacet
facet normal 1.0 -1.3877787807814457e-17 0.0
  outer loop
    vertex 28.79999999999997 -5.509481759702339e-16 21.999999999999993
    vertex 28.79999999999997 0.29999999999999943 27.999999999999993
    vertex 28.79999999999997 -5.509481759702339e-16 27.999999999999993
  endloop
endfacet
facet normal -1.0 1.3877787807814457e-17 0.0
  outer loop
    vertex 47.49999999999997 -8.104628079763642e-16 27.999999999999993
    vertex 47.49999999999997 0.2999999999999992 21.999999999999993
    vertex 47.49999999999997 -8.104628079763642e-16 21.999999999999993
  endloop
endfacet
facet normal -1.0 1.3877787807814457e-17 0.0
  outer loop
    vertex 47.49999999999997 0.2999999999999992 21.999999999999993
    vertex 47.49999999999997 -8.104628079763642e-16 27.999999999999993
    vertex 47.49999999999997 0.2999999999999992 27.999999999999993
  endloop
endfacet
facet normal 0.0 0.0 1.0
  outer loop
    vertex 47.49999999999997 0.2999999999999992 21.999999999999993
    vertex 28.79999999999997 -5.509481759702339e-16 21.999999999999993
    vertex 47.49999999999997 -8.104628079763642e-16 21.999999999999993
  endloop
endfacet
facet normal 0.0 0.0 1.0
  outer loop
    vertex 28.79999999999997 -5.509481759702339e-16 21.999999999999993
    vertex 47.49999999999997 0.2999999999999992 21.999999999999993
    vertex 28.79999999999997 0.29999999999999943 21.999999999999993
  endloop
endfacet
facet normal 0.0 0.0 -1.0
  outer loop
    vertex -3.3839597790574766e-14 -1.5126788710517746e-16 27.999999999999993
    vertex 0.2999999999999656 0.29999999999999927 27.999999999999993
    vertex 28.79999999999997 -5.509481759702339e-16 27.999999999999993
  endloop
endfacet
facet normal 0.0 0.0 -1.0
  outer loop
    vertex 0.2999999999999656 0.29999999999999927 27.999999999999993
    vertex -3.3839597790574766e-14 -1.5126788710517746e-16 27.999999999999993
    vertex -3.3839597790574766e-14 97.6 27.999999999999993
  endloop
endfacet
facet normal 0.0 0.0 -1.0
  outer loop
    vertex 0.2999999999999656 0.29999999999999927 27.999999999999993
    vertex -3.3839597790574766e-14 97.6 27.999999999999993
    vertex 0.2999999999999656 97.3 27.999999999999993
  endloop
endfacet
facet normal 0.0 0.0 -1.0
  outer loop
    vertex 0.2999999999999656 97.3 27.999999999999993
    vertex -3.3839597790574766e-14 97.6 27.999999999999993
    vertex 64.99999999999997 97.3 27.999999999999993
  endloop
endfacet
facet normal 0.0 0.0 -1.0
  outer loop
    vertex 47.49999999999997 0.2999999999999992 27.999999999999993
    vertex 65.29999999999997 -1.0574874309554614e-15 27.999999999999993
    vertex 47.49999999999997 -8.104628079763642e-16 27.999999999999993
  endloop
endfacet
facet normal 0.0 0.0 -1.0
  outer loop
    vertex 65.29999999999997 -1.0574874309554614e-15 27.999999999999993
    vertex 47.49999999999997 0.2999999999999992 27.999999999999993
    vertex 64.99999999999997 0.29999999999999893 27.999999999999993
  endloop
endfacet
facet normal 0.0 0.0 -1.0
  outer loop
    vertex 65.29999999999997 -1.0574874309554614e-15 27.999999999999993
    vertex 64.99999999999997 0.29999999999999893 27.999999999999993
    vertex 65.29999999999997 97.6 27.999999999999993
  endloop
endfacet
facet normal 0.0 0.0 -1.0
  outer loop
    vertex 65.29999999999997 97.6 27.999999999999993
    vertex 64.99999999999997 0.29999999999999893 27.999999999999993
    vertex 64.99999999999997 97.3 27.999999999999993
  endloop
endfacet
facet normal 0.0 0.0 -1.0
  outer loop
    vertex 65.29999999999997 97.6 27.999999999999993
    vertex 64.99999999999997 97.3 27.999999999999993
    vertex -3.3839597790574766e-14 97.6 27.999999999999993
  endloop
endfacet
facet normal 0.0 0.0 -1.0
  outer loop
    vertex 28.79999999999997 0.29999999999999943 27.999999999999993
    vertex 28.79999999999997 -5.509481759702339e-16 27.999999999999993
    vertex 0.2999999999999656 0.29999999999999927 27.999999999999993
  endloop
endfacet
facet normal -1.3877787807814457e-17 -1.0 0.0
  outer loop
    vertex 64.99999999999997 97.3 27.999999999999993
    vertex 58.99999999999997 97.3 4.3
    vertex 64.99999999999997 97.3 0.3
  endloop
endfacet
facet normal -1.3877787807814457e-17 -1.0 0.0
  outer loop
    vertex 58.99999999999997 97.3 4.3
    vertex 64.99999999999997 97.3 27.999999999999993
    vertex 0.2999999999999656 97.3 27.999999999999993
  endloop
endfacet
facet normal -1.3877787807814457e-17 -1.0 0.0
  outer loop
    vertex 58.99999999999997 97.3 4.3
    vertex 0.2999999999999656 97.3 27.999999999999993
    vertex 49.99999999999997 97.3 4.3
  endloop
endfacet
facet normal -1.3877787807814457e-17 -1.0 0.0
  outer loop
    vertex 49.99999999999997 97.3 4.3
    vertex 0.2999999999999656 97.3 27.999999999999993
    vertex 49.99999999999997 97.3 0.3
  endloop
endfacet
facet normal -1.3877787807814457e-17 -1.0 0.0
  outer loop
    vertex 49.99999999999997 97.3 0.3
    vertex 0.2999999999999656 97.3 27.999999999999993
    vertex 0.2999999999999656 97.3 0.3
  endloop
endfacet
facet normal -1.3877787807814457e-17 -1.0 0.0
  outer loop
    vertex 58.99999999999997 97.3 0.3
    vertex 64.99999999999997 97.3 0.3
    vertex 58.99999999999997 97.3 4.3
  endloop
endfacet
endsolid Tricorder_BottomEnclosure_rev2
