solid Tricorder_BottomEnclosure
facet normal 0.0 0.0 -1.0
  outer loop
    vertex 97.6 65.30000000000001 0.0
    vertex 0.0 0.0 0.0
    vertex 0.0 65.30000000000001 0.0
  endloop
endfacet
facet normal 0.0 0.0 -1.0
  outer loop
    vertex 0.0 0.0 0.0
    vertex 97.6 65.30000000000001 0.0
    vertex 97.6 0.0 0.0
  endloop
endfacet
facet normal -0.0 0.0 -1.0
  outer loop
    vertex 97.6 15.3 4.3
    vertex 97.3 6.3 4.3
    vertex 97.3 15.3 4.3
  endloop
endfacet
facet normal -0.0 0.0 -1.0
  outer loop
    vertex 97.3 6.3 4.3
    vertex 97.6 15.3 4.3
    vertex 97.6 6.3 4.3
  endloop
endfacet
facet normal -0.0 1.0 -0.0
  outer loop
    vertex 97.3 6.3 4.3
    vertex 97.6 6.3 0.3
    vertex 97.3 6.3 0.3
  endloop
endfacet
facet normal -0.0 1.0 -0.0
  outer loop
    vertex 97.6 6.3 0.3
    vertex 97.3 6.3 4.3
    vertex 97.6 6.3 4.3
  endloop
endfacet
facet normal -0.0 -1.0 -0.0
  outer loop
    vertex 97.6 15.3 4.3
    vertex 97.3 15.3 0.3
    vertex 97.6 15.3 0.3
  endloop
endfacet
facet normal -0.0 -1.0 -0.0
  outer loop
    vertex 97.3 15.3 0.3
    vertex 97.6 15.3 4.3
    vertex 97.3 15.3 4.3
  endloop
endfacet
facet normal -0.0 -0.0 1.0
  outer loop
    vertex 97.6 6.3 0.3
    vertex 97.3 15.3 0.3
    vertex 97.3 6.3 0.3
  endloop
endfacet
facet normal -0.0 -0.0 1.0
  outer loop
    vertex 97.3 15.3 0.3
    vertex 97.6 6.3 0.3
    vertex 97.6 15.3 0.3
  endloop
endfacet
facet normal -0.0 -0.0 1.0
  outer loop
    vertex 0.3 0.3 0.3
    vertex 97.3 65.0 0.3
    vertex 0.29999999999999943 65.0 0.3
  endloop
endfacet
facet normal -0.0 -0.0 1.0
  outer loop
    vertex 97.3 65.0 0.3
    vertex 0.3 0.3 0.3
    vertex 97.3 0.29999999999999943 0.3
  endloop
endfacet
facet normal -0.0 -0.0 1.0
  outer loop
    vertex 97.3 65.0 0.3
    vertex 97.3 0.29999999999999943 0.3
    vertex 97.3 6.3 0.3
  endloop
endfacet
facet normal -0.0 -0.0 1.0
  outer loop
    vertex 97.3 65.0 0.3
    vertex 97.3 6.3 0.3
    vertex 97.3 15.3 0.3
  endloop
endfacet
facet normal 0.0 0.0 1.0
  outer loop
    vertex 0.3 19.299999999999997 21.999999999999993
    vertex 0.0 42.0 21.999999999999993
    vertex 0.0 19.299999999999997 21.999999999999993
  endloop
endfacet
facet normal 0.0 0.0 1.0
  outer loop
    vertex 0.0 42.0 21.999999999999993
    vertex 0.3 19.299999999999997 21.999999999999993
    vertex 0.3 42.0 21.999999999999993
  endloop
endfacet
facet normal 0.0 -1.0 0.0
  outer loop
    vertex 97.3 65.0 27.999999999999993
    vertex 0.29999999999999943 65.0 0.3
    vertex 97.3 65.0 0.3
  endloop
endfacet
facet normal 0.0 -1.0 0.0
  outer loop
    vertex 0.29999999999999943 65.0 0.3
    vertex 97.3 65.0 27.999999999999993
    vertex 0.29999999999999943 65.0 27.999999999999993
  endloop
endfacet
facet normal 1.0 7.440682774939054e-18 -5.212054740141639e-18
  outer loop
    vertex 0.29999999999999943 65.0 0.3
    vertex 0.3 0.3 27.999999999999993
    vertex 0.3 0.3 0.3
  endloop
endfacet
facet normal 1.0 7.440682774939054e-18 -5.212054740141639e-18
  outer loop
    vertex 0.3 0.3 27.999999999999993
    vertex 0.29999999999999943 65.0 0.3
    vertex 0.3 19.299999999999997 21.999999999999993
  endloop
endfacet
facet normal 1.0 7.440682774939054e-18 -5.212054740141639e-18
  outer loop
    vertex 0.3 19.299999999999997 21.999999999999993
    vertex 0.29999999999999943 65.0 0.3
    vertex 0.3 42.0 21.999999999999993
  endloop
endfacet
facet normal 1.0 7.440682774939054e-18 -5.212054740141639e-18
  outer loop
    vertex 0.3 42.0 21.999999999999993
    vertex 0.29999999999999943 65.0 0.3
    vertex 0.3 42.0 27.999999999999993
  endloop
endfacet
facet normal 1.0 7.440682774939054e-18 -5.212054740141639e-18
  outer loop
    vertex 0.3 42.0 27.999999999999993
    vertex 0.29999999999999943 65.0 0.3
    vertex 0.29999999999999943 65.0 27.999999999999993
  endloop
endfacet
facet normal 1.0 7.440682774939054e-18 -5.212054740141639e-18
  outer loop
    vertex 0.3 19.299999999999997 27.999999999999993
    vertex 0.3 0.3 27.999999999999993
    vertex 0.3 19.299999999999997 21.999999999999993
  endloop
endfacet
facet normal -1.0 0.0 0.0
  outer loop
    vertex 0.0 65.30000000000001 27.999999999999993
    vertex 0.0 42.0 21.999999999999993
    vertex 0.0 42.0 27.999999999999993
  endloop
endfacet
facet normal -1.0 0.0 0.0
  outer loop
    vertex 0.0 19.299999999999997 27.999999999999993
    vertex 0.0 0.0 0.0
    vertex 0.0 0.0 27.999999999999993
  endloop
endfacet
facet normal -1.0 0.0 0.0
  outer loop
    vertex 0.0 0.0 0.0
    vertex 0.0 19.299999999999997 27.999999999999993
    vertex 0.0 19.299999999999997 21.999999999999993
  endloop
endfacet
facet normal -1.0 0.0 0.0
  outer loop
    vertex 0.0 0.0 0.0
    vertex 0.0 19.299999999999997 21.999999999999993
    vertex 0.0 65.30000000000001 0.0
  endloop
endfacet
facet normal -1.0 0.0 0.0
  outer loop
    vertex 0.0 65.30000000000001 0.0
    vertex 0.0 19.299999999999997 21.999999999999993
    vertex 0.0 42.0 21.999999999999993
  endloop
endfacet
facet normal -1.0 0.0 0.0
  outer loop
    vertex 0.0 65.30000000000001 0.0
    vertex 0.0 42.0 21.999999999999993
    vertex 0.0 65.30000000000001 27.999999999999993
  endloop
endfacet
facet normal 0.0 -1.0 0.0
  outer loop
    vertex 97.6 0.0 27.999999999999993
    vertex 0.0 0.0 0.0
    vertex 97.6 0.0 0.0
  endloop
endfacet
facet normal 0.0 -1.0 0.0
  outer loop
    vertex 0.0 0.0 0.0
    vertex 97.6 0.0 27.999999999999993
    vertex 0.0 0.0 27.999999999999993
  endloop
endfacet
facet normal 1.0 -0.0 -0.0
  outer loop
    vertex 97.6 0.0 0.0
    vertex 97.6 6.3 0.3
    vertex 97.6 0.0 27.999999999999993
  endloop
endfacet
facet normal 1.0 -0.0 -0.0
  outer loop
    vertex 97.6 6.3 0.3
    vertex 97.6 0.0 0.0
    vertex 97.6 65.30000000000001 0.0
  endloop
endfacet
facet normal 1.0 -0.0 -0.0
  outer loop
    vertex 97.6 6.3 0.3
    vertex 97.6 65.30000000000001 0.0
    vertex 97.6 15.3 0.3
  endloop
endfacet
facet normal 1.0 -0.0 -0.0
  outer loop
    vertex 97.6 15.3 0.3
    vertex 97.6 65.30000000000001 0.0
    vertex 97.6 15.3 4.3
  endloop
endfacet
facet normal 1.0 -0.0 -0.0
  outer loop
    vertex 97.6 0.0 27.999999999999993
    vertex 97.6 6.3 4.3
    vertex 97.6 65.30000000000001 27.999999999999993
  endloop
endfacet
facet normal 1.0 -0.0 -0.0
  outer loop
    vertex 97.6 6.3 4.3
    vertex 97.6 0.0 27.999999999999993
    vertex 97.6 6.3 0.3
  endloop
endfacet
facet normal 1.0 -0.0 -0.0
  outer loop
    vertex 97.6 65.30000000000001 27.999999999999993
    vertex 97.6 6.3 4.3
    vertex 97.6 15.3 4.3
  endloop
endfacet
facet normal 1.0 -0.0 -0.0
  outer loop
    vertex 97.6 65.30000000000001 27.999999999999993
    vertex 97.6 15.3 4.3
    vertex 97.6 65.30000000000001 0.0
  endloop
endfacet
facet normal -0.0 1.0 -0.0
  outer loop
    vertex 0.0 65.30000000000001 27.999999999999993
    vertex 97.6 65.30000000000001 0.0
    vertex 0.0 65.30000000000001 0.0
  endloop
endfacet
facet normal -0.0 1.0 -0.0
  outer loop
    vertex 97.6 65.30000000000001 0.0
    vertex 0.0 65.30000000000001 27.999999999999993
    vertex 97.6 65.30000000000001 27.999999999999993
  endloop
endfacet
facet normal 5.450966138945679e-18 1.0 -0.0
  outer loop
    vertex 0.3 0.3 27.999999999999993
    vertex 97.3 0.29999999999999943 0.3
    vertex 0.3 0.3 0.3
  endloop
endfacet
facet normal 5.450966138945679e-18 1.0 -0.0
  outer loop
    vertex 97.3 0.29999999999999943 0.3
    vertex 0.3 0.3 27.999999999999993
    vertex 97.3 0.29999999999999943 27.999999999999993
  endloop
endfacet
facet normal 0.0 -1.0 0.0
  outer loop
    vertex 0.3 42.0 27.999999999999993
    vertex 0.0 42.0 21.999999999999993
    vertex 0.3 42.0 21.999999999999993
  endloop
endfacet
facet normal 0.0 -1.0 0.0
  outer loop
    vertex 0.0 42.0 21.999999999999993
    vertex 0.3 42.0 27.999999999999993
    vertex 0.0 42.0 27.999999999999993
  endloop
endfacet
facet normal -0.0 1.0 -0.0
  outer loop
    vertex 0.0 19.299999999999997 27.999999999999993
    vertex 0.3 19.299999999999997 21.999999999999993
    vertex 0.0 19.299999999999997 21.999999999999993
  endloop
endfacet
facet normal -0.0 1.0 -0.0
  outer loop
    vertex 0.3 19.299999999999997 21.999999999999993
    vertex 0.0 19.299999999999997 27.999999999999993
    vertex 0.3 19.299999999999997 27.999999999999993
  endloop
endfacet
facet normal 0.0 0.0 -1.0
  outer loop
    vertex 0.0 65.30000000000001 27.999999999999993
    vertex 0.29999999999999943 65.0 27.999999999999993
    vertex 0.0 42.0 27.999999999999993
  endloop
endfacet
facet normal 0.0 0.0 -1.0
  outer loop
    vertex 0.29999999999999943 65.0 27.999999999999993
    vertex 0.0 65.30000000000001 27.999999999999993
    vertex 97.6 65.30000000000001 27.999999999999993
  endloop
endfacet
facet normal 0.0 0.0 -1.0
  outer loop
    vertex 0.29999999999999943 65.0 27.999999999999993
    vertex 97.6 65.30000000000001 27.999999999999993
    vertex 97.3 65.0 27.999999999999993
  endloop
endfacet
facet normal 0.0 0.0 -1.0
  outer loop
    vertex 97.3 65.0 27.999999999999993
    vertex 97.6 65.30000000000001 27.999999999999993
    vertex 97.3 0.29999999999999943 27.999999999999993
  endloop
endfacet
facet normal 0.0 0.0 -1.0
  outer loop
    vertex 0.3 19.299999999999997 27.999999999999993
    vertex 0.0 0.0 27.999999999999993
    vertex 0.0 19.299999999999997 27.999999999999993
  endloop
endfacet
facet normal 0.0 0.0 -1.0
  outer loop
    vertex 0.0 0.0 27.999999999999993
    vertex 0.3 19.299999999999997 27.999999999999993
    vertex 0.3 0.3 27.999999999999993
  endloop
endfacet
facet normal 0.0 0.0 -1.0
  outer loop
    vertex 0.0 0.0 27.999999999999993
    vertex 0.3 0.3 27.999999999999993
    vertex 97.6 0.0 27.999999999999993
  endloop
endfacet
facet normal 0.0 0.0 -1.0
  outer loop
    vertex 97.6 0.0 27.999999999999993
    vertex 0.3 0.3 27.999999999999993
    vertex 97.3 0.29999999999999943 27.999999999999993
  endloop
endfacet
facet normal 0.0 0.0 -1.0
  outer loop
    vertex 97.6 0.0 27.999999999999993
    vertex 97.3 0.29999999999999943 27.999999999999993
    vertex 97.6 65.30000000000001 27.999999999999993
  endloop
endfacet
facet normal 0.0 0.0 -1.0
  outer loop
    vertex 0.3 42.0 27.999999999999993
    vertex 0.0 42.0 27.999999999999993
    vertex 0.29999999999999943 65.0 27.999999999999993
  endloop
endfacet
facet normal -1.0 0.0 0.0
  outer loop
    vertex 97.3 0.29999999999999943 27.999999999999993
    vertex 97.3 6.3 4.3
    vertex 97.3 0.29999999999999943 0.3
  endloop
endfacet
facet normal -1.0 0.0 0.0
  outer loop
    vertex 97.3 6.3 4.3
    vertex 97.3 0.29999999999999943 27.999999999999993
    vertex 97.3 65.0 27.999999999999993
  endloop
endfacet
facet normal -1.0 0.0 0.0
  outer loop
    vertex 97.3 6.3 4.3
    vertex 97.3 65.0 27.999999999999993
    vertex 97.3 15.3 4.3
  endloop
endfacet
facet normal -1.0 0.0 0.0
  outer loop
    vertex 97.3 15.3 4.3
    vertex 97.3 65.0 27.999999999999993
    vertex 97.3 15.3 0.3
  endloop
endfacet
facet normal -1.0 0.0 0.0
  outer loop
    vertex 97.3 15.3 0.3
    vertex 97.3 65.0 27.999999999999993
    vertex 97.3 65.0 0.3
  endloop
endfacet
facet normal -1.0 0.0 0.0
  outer loop
    vertex 97.3 6.3 0.3
    vertex 97.3 0.29999999999999943 0.3
    vertex 97.3 6.3 4.3
  endloop
endfacet
endsolid Tricorder_BottomEnclosure
