solid Tricorder_Assembled
facet normal -0.0 1.0 -0.0
  outer loop
    vertex 9.000000000000005 9.999999999999998 1.9999999999999998
    vertex 30.0 9.999999999999998 0.0
    vertex 9.000000000000005 9.999999999999998 0.0
  endloop
endfacet
facet normal -0.0 1.0 -0.0
  outer loop
    vertex 30.0 9.999999999999998 0.0
    vertex 9.000000000000005 9.999999999999998 1.9999999999999998
    vertex 30.0 9.999999999999998 1.9999999999999998
  endloop
endfacet
facet normal -1.0 0.0 -0.0
  outer loop
    vertex 30.0 53.00000000000001 1.9999999999999998
    vertex 30.0 9.999999999999998 0.0
    vertex 30.0 9.999999999999998 1.9999999999999998
  endloop
endfacet
facet normal -1.0 0.0 -0.0
  outer loop
    vertex 30.0 9.999999999999998 0.0
    vertex 30.0 53.00000000000001 1.9999999999999998
    vertex 30.0 53.00000000000001 0.0
  endloop
endfacet
facet normal -0.0 -1.0 -0.0
  outer loop
    vertex 30.0 53.00000000000001 1.9999999999999998
    vertex 8.999999999999995 53.00000000000001 0.0
    vertex 30.0 53.00000000000001 0.0
  endloop
endfacet
facet normal -0.0 -1.0 -0.0
  outer loop
    vertex 8.999999999999995 53.00000000000001 0.0
    vertex 30.0 53.00000000000001 1.9999999999999998
    vertex 8.999999999999995 53.00000000000001 1.9999999999999998
  endloop
endfacet
facet normal 1.0 0.0 0.0
  outer loop
    vertex 44.0 53.00000000000001 0.0
    vertex 44.0 9.999999999999998 1.9999999999999998
    vertex 44.0 9.999999999999998 0.0
  endloop
endfacet
facet normal 1.0 0.0 0.0
  outer loop
    vertex 44.0 9.999999999999998 1.9999999999999998
    vertex 44.0 53.00000000000001 0.0
    vertex 44.0 53.00000000000001 1.9999999999999998
  endloop
endfacet
facet normal -0.0 1.0 -0.0
  outer loop
    vertex 44.0 9.999999999999998 1.9999999999999998
    vertex 65.0 9.999999999999998 0.0
    vertex 44.0 9.999999999999998 0.0
  endloop
endfacet
facet normal -0.0 1.0 -0.0
  outer loop
    vertex 65.0 9.999999999999998 0.0
    vertex 44.0 9.999999999999998 1.9999999999999998
    vertex 65.0 9.999999999999998 1.9999999999999998
  endloop
endfacet
facet normal -1.0 0.0 -0.0
  outer loop
    vertex 65.0 53.00000000000001 1.9999999999999998
    vertex 65.0 9.999999999999998 0.0
    vertex 65.0 9.999999999999998 1.9999999999999998
  endloop
endfacet
facet normal -1.0 0.0 -0.0
  outer loop
    vertex 65.0 9.999999999999998 0.0
    vertex 65.0 53.00000000000001 1.9999999999999998
    vertex 65.0 53.00000000000001 0.0
  endloop
endfacet
facet normal -0.0 -1.0 -0.0
  outer loop
    vertex 65.0 53.00000000000001 1.9999999999999998
    vertex 44.0 53.00000000000001 0.0
    vertex 65.0 53.00000000000001 0.0
  endloop
endfacet
facet normal -0.0 -1.0 -0.0
  outer loop
    vertex 44.0 53.00000000000001 0.0
    vertex 65.0 53.00000000000001 1.9999999999999998
    vertex 44.0 53.00000000000001 1.9999999999999998
  endloop
endfacet
facet normal 1.0 2.6232246349282764e-16 0.0
  outer loop
    vertex 8.999999999999995 53.00000000000001 0.0
    vertex 9.000000000000005 9.999999999999998 1.9999999999999998
    vertex 9.000000000000005 9.999999999999998 0.0
  endloop
endfacet
facet normal 1.0 2.6232246349282764e-16 0.0
  outer loop
    vertex 9.000000000000005 9.999999999999998 1.9999999999999998
    vertex 8.999999999999995 53.00000000000001 0.0
    vertex 8.999999999999995 53.00000000000001 1.9999999999999998
  endloop
endfacet
facet normal 0.0 0.0 1.0
  outer loop
    vertex 74.0 59.00000000000001 9.999999999999998
    vertex 72.0 99.0 9.999999999999998
    vertex 72.0 59.00000000000001 9.999999999999998
  endloop
endfacet
facet normal 0.0 0.0 1.0
  outer loop
    vertex 72.0 99.0 9.999999999999998
    vertex 74.0 59.00000000000001 9.999999999999998
    vertex 74.0 99.0 9.999999999999998
  endloop
endfacet
facet normal -1.0 0.0 0.0
  outer loop
    vertex 72.0 59.00000000000001 33.0
    vertex 72.0 0.0 1.9999999999999998
    vertex 72.0 0.0 33.0
  endloop
endfacet
facet normal -1.0 0.0 0.0
  outer loop
    vertex 72.0 0.0 1.9999999999999998
    vertex 72.0 59.00000000000001 33.0
    vertex 72.0 59.00000000000001 9.999999999999998
  endloop
endfacet
facet normal -1.0 0.0 0.0
  outer loop
    vertex 72.0 0.0 1.9999999999999998
    vertex 72.0 59.00000000000001 9.999999999999998
    vertex 72.0 99.0 1.9999999999999998
  endloop
endfacet
facet normal -1.0 0.0 0.0
  outer loop
    vertex 72.0 99.0 1.9999999999999998
    vertex 72.0 59.00000000000001 9.999999999999998
    vertex 72.0 99.0 9.999999999999998
  endloop
endfacet
facet normal 0.0 0.0 1.0
  outer loop
    vertex 2.000000000000001 59.00000000000001 9.999999999999998
    vertex 0.0 99.0 9.999999999999998
    vertex 0.0 59.00000000000001 9.999999999999998
  endloop
endfacet
facet normal 0.0 0.0 1.0
  outer loop
    vertex 0.0 99.0 9.999999999999998
    vertex 2.000000000000001 59.00000000000001 9.999999999999998
    vertex 1.999999999999998 99.0 9.999999999999998
  endloop
endfacet
facet normal 1.0 7.20200651863816e-18 -2.5791559243712307e-17
  outer loop
    vertex 1.9999999999999998 0.0 1.9999999999999998
    vertex 2.000000000000001 59.00000000000001 9.999999999999998
    vertex 1.9999999999999998 0.0 33.0
  endloop
endfacet
facet normal 1.0 7.20200651863816e-18 -2.5791559243712307e-17
  outer loop
    vertex 2.000000000000001 59.00000000000001 9.999999999999998
    vertex 1.9999999999999998 0.0 1.9999999999999998
    vertex 1.999999999999998 99.0 1.9999999999999998
  endloop
endfacet
facet normal 1.0 7.20200651863816e-18 -2.5791559243712307e-17
  outer loop
    vertex 2.000000000000001 59.00000000000001 9.999999999999998
    vertex 1.999999999999998 99.0 1.9999999999999998
    vertex 1.999999999999998 99.0 9.999999999999998
  endloop
endfacet
facet normal 1.0 7.20200651863816e-18 -2.5791559243712307e-17
  outer loop
    vertex 2.000000000000001 59.00000000000001 33.0
    vertex 1.9999999999999998 0.0 33.0
    vertex 2.000000000000001 59.00000000000001 9.999999999999998
  endloop
endfacet
facet normal -0.0 -0.0 1.0
  outer loop
    vertex 1.9999999999999998 0.0 1.9999999999999998
    vertex 9.000000000000005 9.999999999999998 1.9999999999999998
    vertex 8.999999999999995 53.00000000000001 1.9999999999999998
  endloop
endfacet
facet normal -0.0 -0.0 1.0
  outer loop
    vertex 9.000000000000005 9.999999999999998 1.9999999999999998
    vertex 1.9999999999999998 0.0 1.9999999999999998
    vertex 72.0 0.0 1.9999999999999998
  endloop
endfacet
facet normal -0.0 -0.0 1.0
  outer loop
    vertex 9.000000000000005 9.999999999999998 1.9999999999999998
    vertex 72.0 0.0 1.9999999999999998
    vertex 30.0 9.999999999999998 1.9999999999999998
  endloop
endfacet
facet normal -0.0 -0.0 1.0
  outer loop
    vertex 30.0 9.999999999999998 1.9999999999999998
    vertex 72.0 0.0 1.9999999999999998
    vertex 44.0 9.999999999999998 1.9999999999999998
  endloop
endfacet
facet normal -0.0 -0.0 1.0
  outer loop
    vertex 30.0 9.999999999999998 1.9999999999999998
    vertex 44.0 9.999999999999998 1.9999999999999998
    vertex 30.0 53.00000000000001 1.9999999999999998
  endloop
endfacet
facet normal -0.0 -0.0 1.0
  outer loop
    vertex 44.0 9.999999999999998 1.9999999999999998
    vertex 72.0 0.0 1.9999999999999998
    vertex 65.0 9.999999999999998 1.9999999999999998
  endloop
endfacet
facet normal -0.0 -0.0 1.0
  outer loop
    vertex 65.0 9.999999999999998 1.9999999999999998
    vertex 72.0 0.0 1.9999999999999998
    vertex 65.0 53.00000000000001 1.9999999999999998
  endloop
endfacet
facet normal -0.0 -0.0 1.0
  outer loop
    vertex 1.999999999999998 99.0 1.9999999999999998
    vertex 8.999999999999995 53.00000000000001 1.9999999999999998
    vertex 72.0 99.0 1.9999999999999998
  endloop
endfacet
facet normal -0.0 -0.0 1.0
  outer loop
    vertex 8.999999999999995 53.00000000000001 1.9999999999999998
    vertex 1.999999999999998 99.0 1.9999999999999998
    vertex 1.9999999999999998 0.0 1.9999999999999998
  endloop
endfacet
facet normal -0.0 -0.0 1.0
  outer loop
    vertex 72.0 99.0 1.9999999999999998
    vertex 8.999999999999995 53.00000000000001 1.9999999999999998
    vertex 30.0 53.00000000000001 1.9999999999999998
  endloop
endfacet
facet normal -0.0 -0.0 1.0
  outer loop
    vertex 72.0 99.0 1.9999999999999998
    vertex 30.0 53.00000000000001 1.9999999999999998
    vertex 44.0 53.00000000000001 1.9999999999999998
  endloop
endfacet
facet normal -0.0 -0.0 1.0
  outer loop
    vertex 44.0 53.00000000000001 1.9999999999999998
    vertex 30.0 53.00000000000001 1.9999999999999998
    vertex 44.0 9.999999999999998 1.9999999999999998
  endloop
endfacet
facet normal -0.0 -0.0 1.0
  outer loop
    vertex 72.0 99.0 1.9999999999999998
    vertex 44.0 53.00000000000001 1.9999999999999998
    vertex 65.0 53.00000000000001 1.9999999999999998
  endloop
endfacet
facet normal -0.0 -0.0 1.0
  outer loop
    vertex 72.0 99.0 1.9999999999999998
    vertex 65.0 53.00000000000001 1.9999999999999998
    vertex 72.0 0.0 1.9999999999999998
  endloop
endfacet
facet normal -0.0 1.0 -0.0
  outer loop
    vertex 0.0 99.0 0.0
    vertex 1.999999999999998 99.0 1.9999999999999998
    vertex 74.0 99.0 0.0
  endloop
endfacet
facet normal -0.0 1.0 -0.0
  outer loop
    vertex 1.999999999999998 99.0 1.9999999999999998
    vertex 0.0 99.0 0.0
    vertex 0.0 99.0 9.999999999999998
  endloop
endfacet
facet normal -0.0 1.0 -0.0
  outer loop
    vertex 1.999999999999998 99.0 1.9999999999999998
    vertex 0.0 99.0 9.999999999999998
    vertex 1.999999999999998 99.0 9.999999999999998
  endloop
endfacet
facet normal -0.0 1.0 -0.0
  outer loop
    vertex 74.0 99.0 0.0
    vertex 72.0 99.0 1.9999999999999998
    vertex 74.0 99.0 9.999999999999998
  endloop
endfacet
facet normal -0.0 1.0 -0.0
  outer loop
    vertex 72.0 99.0 1.9999999999999998
    vertex 74.0 99.0 0.0
    vertex 1.999999999999998 99.0 1.9999999999999998
  endloop
endfacet
facet normal -0.0 1.0 -0.0
  outer loop
    vertex 74.0 99.0 9.999999999999998
    vertex 72.0 99.0 1.9999999999999998
    vertex 72.0 99.0 9.999999999999998
  endloop
endfacet
facet normal 1.0 -0.0 -0.0
  outer loop
    vertex 74.0 0.0 0.0
    vertex 74.0 59.00000000000001 9.999999999999998
    vertex 74.0 0.0 33.0
  endloop
endfacet
facet normal 1.0 -0.0 -0.0
  outer loop
    vertex 74.0 59.00000000000001 9.999999999999998
    vertex 74.0 0.0 0.0
    vertex 74.0 99.0 0.0
  endloop
endfacet
facet normal 1.0 -0.0 -0.0
  outer loop
    vertex 74.0 59.00000000000001 9.999999999999998
    vertex 74.0 99.0 0.0
    vertex 74.0 99.0 9.999999999999998
  endloop
endfacet
facet normal 1.0 -0.0 -0.0
  outer loop
    vertex 74.0 59.00000000000001 33.0
    vertex 74.0 0.0 33.0
    vertex 74.0 59.00000000000001 9.999999999999998
  endloop
endfacet
facet normal 0.0 0.0 1.0
  outer loop
    vertex 1.9999999999999998 0.0 33.0
    vertex 0.0 59.00000000000001 33.0
    vertex 0.0 0.0 33.0
  endloop
endfacet
facet normal 0.0 0.0 1.0
  outer loop
    vertex 0.0 59.00000000000001 33.0
    vertex 1.9999999999999998 0.0 33.0
    vertex 2.000000000000001 59.00000000000001 33.0
  endloop
endfacet
facet normal 0.0 1.0 0.0
  outer loop
    vertex 0.0 59.00000000000001 33.0
    vertex 2.000000000000001 59.00000000000001 9.999999999999998
    vertex 0.0 59.00000000000001 9.999999999999998
  endloop
endfacet
facet normal 0.0 1.0 0.0
  outer loop
    vertex 2.000000000000001 59.00000000000001 9.999999999999998
    vertex 0.0 59.00000000000001 33.0
    vertex 2.000000000000001 59.00000000000001 33.0
  endloop
endfacet
facet normal 0.0 0.0 1.0
  outer loop
    vertex 74.0 0.0 33.0
    vertex 72.0 59.00000000000001 33.0
    vertex 72.0 0.0 33.0
  endloop
endfacet
facet normal 0.0 0.0 1.0
  outer loop
    vertex 72.0 59.00000000000001 33.0
    vertex 74.0 0.0 33.0
    vertex 74.0 59.00000000000001 33.0
  endloop
endfacet
facet normal 0.0 1.0 0.0
  outer loop
    vertex 72.0 59.00000000000001 33.0
    vertex 74.0 59.00000000000001 9.999999999999998
    vertex 72.0 59.00000000000001 9.999999999999998
  endloop
endfacet
facet normal 0.0 1.0 0.0
  outer loop
    vertex 74.0 59.00000000000001 9.999999999999998
    vertex 72.0 59.00000000000001 33.0
    vertex 74.0 59.00000000000001 33.0
  endloop
endfacet
facet normal -1.0 0.0 0.0
  outer loop
    vertex 0.0 59.00000000000001 33.0
    vertex 0.0 0.0 0.0
    vertex 0.0 0.0 33.0
  endloop
endfacet
facet normal -1.0 0.0 0.0
  outer loop
    vertex 0.0 0.0 0.0
    vertex 0.0 59.00000000000001 33.0
    vertex 0.0 59.00000000000001 9.999999999999998
  endloop
endfacet
facet normal -1.0 0.0 0.0
  outer loop
    vertex 0.0 0.0 0.0
    vertex 0.0 59.00000000000001 9.999999999999998
    vertex 0.0 99.0 0.0
  endloop
endfacet
facet normal -1.0 0.0 0.0
  outer loop
    vertex 0.0 99.0 0.0
    vertex 0.0 59.00000000000001 9.999999999999998
    vertex 0.0 99.0 9.999999999999998
  endloop
endfacet
facet normal 0.0 0.0 -1.0
  outer loop
    vertex 0.0 99.0 0.0
    vertex 8.999999999999995 53.00000000000001 0.0
    vertex 0.0 0.0 0.0
  endloop
endfacet
facet normal 0.0 0.0 -1.0
  outer loop
    vertex 8.999999999999995 53.00000000000001 0.0
    vertex 0.0 99.0 0.0
    vertex 74.0 99.0 0.0
  endloop
endfacet
facet normal 0.0 0.0 -1.0
  outer loop
    vertex 8.999999999999995 53.00000000000001 0.0
    vertex 74.0 99.0 0.0
    vertex 30.0 53.00000000000001 0.0
  endloop
endfacet
facet normal 0.0 0.0 -1.0
  outer loop
    vertex 30.0 53.00000000000001 0.0
    vertex 74.0 99.0 0.0
    vertex 44.0 53.00000000000001 0.0
  endloop
endfacet
facet normal 0.0 0.0 -1.0
  outer loop
    vertex 30.0 53.00000000000001 0.0
    vertex 44.0 53.00000000000001 0.0
    vertex 30.0 9.999999999999998 0.0
  endloop
endfacet
facet normal 0.0 0.0 -1.0
  outer loop
    vertex 44.0 53.00000000000001 0.0
    vertex 74.0 99.0 0.0
    vertex 65.0 53.00000000000001 0.0
  endloop
endfacet
facet normal 0.0 0.0 -1.0
  outer loop
    vertex 65.0 53.00000000000001 0.0
    vertex 74.0 99.0 0.0
    vertex 65.0 9.999999999999998 0.0
  endloop
endfacet
facet normal 0.0 0.0 -1.0
  outer loop
    vertex 0.0 0.0 0.0
    vertex 9.000000000000005 9.999999999999998 0.0
    vertex 74.0 0.0 0.0
  endloop
endfacet
facet normal 0.0 0.0 -1.0
  outer loop
    vertex 9.000000000000005 9.999999999999998 0.0
    vertex 0.0 0.0 0.0
    vertex 8.999999999999995 53.00000000000001 0.0
  endloop
endfacet
facet normal 0.0 0.0 -1.0
  outer loop
    vertex 74.0 0.0 0.0
    vertex 9.000000000000005 9.999999999999998 0.0
    vertex 30.0 9.999999999999998 0.0
  endloop
endfacet
facet normal 0.0 0.0 -1.0
  outer loop
    vertex 74.0 0.0 0.0
    vertex 30.0 9.999999999999998 0.0
    vertex 44.0 9.999999999999998 0.0
  endloop
endfacet
facet normal 0.0 0.0 -1.0
  outer loop
    vertex 44.0 9.999999999999998 0.0
    vertex 30.0 9.999999999999998 0.0
    vertex 44.0 53.00000000000001 0.0
  endloop
endfacet
facet normal 0.0 0.0 -1.0
  outer loop
    vertex 74.0 0.0 0.0
    vertex 44.0 9.999999999999998 0.0
    vertex 65.0 9.999999999999998 0.0
  endloop
endfacet
facet normal 0.0 0.0 -1.0
  outer loop
    vertex 74.0 0.0 0.0
    vertex 65.0 9.999999999999998 0.0
    vertex 74.0 99.0 0.0
  endloop
endfacet
facet normal 0.0 -1.0 0.0
  outer loop
    vertex 74.0 0.0 0.0
    vertex 72.0 0.0 1.9999999999999998
    vertex 0.0 0.0 0.0
  endloop
endfacet
facet normal 0.0 -1.0 0.0
  outer loop
    vertex 72.0 0.0 1.9999999999999998
    vertex 74.0 0.0 0.0
    vertex 74.0 0.0 33.0
  endloop
endfacet
facet normal 0.0 -1.0 0.0
  outer loop
    vertex 72.0 0.0 1.9999999999999998
    vertex 74.0 0.0 33.0
    vertex 72.0 0.0 33.0
  endloop
endfacet
facet normal 0.0 -1.0 0.0
  outer loop
    vertex 0.0 0.0 0.0
    vertex 1.9999999999999998 0.0 1.9999999999999998
    vertex 0.0 0.0 33.0
  endloop
endfacet
facet normal 0.0 -1.0 0.0
  outer loop
    vertex 1.9999999999999998 0.0 1.9999999999999998
    vertex 0.0 0.0 0.0
    vertex 72.0 0.0 1.9999999999999998
  endloop
endfacet
facet normal 0.0 -1.0 0.0
  outer loop
    vertex 0.0 0.0 33.0
    vertex 1.9999999999999998 0.0 1.9999999999999998
    vertex 1.9999999999999998 0.0 33.0
  endloop
endfacet
facet normal 1.0 0.0 2.220446049250313e-16
  outer loop
    vertex 4.748957000000021 59.00000000000001 3.0
    vertex 4.74895700000001 57.00000000000001 19.000000000000004
    vertex 4.748957000000021 57.00000000000001 3.0
  endloop
endfacet
facet normal 1.0 0.0 2.220446049250313e-16
  outer loop
    vertex 4.74895700000001 57.00000000000001 19.000000000000004
    vertex 4.748957000000021 59.00000000000001 3.0
    vertex 4.74895700000001 59.00000000000001 19.000000000000004
  endloop
endfacet
facet normal 2.220446049250313e-16 0.0 -1.0
  outer loop
    vertex 4.74895700000001 0.0 19.000000000000004
    vertex 69.74895700000002 1.9999999999999998 19.000000000000018
    vertex 69.74895700000002 0.0 19.000000000000018
  endloop
endfacet
facet normal 2.220446049250313e-16 0.0 -1.0
  outer loop
    vertex 69.74895700000002 1.9999999999999998 19.000000000000018
    vertex 4.74895700000001 0.0 19.000000000000004
    vertex 4.74895700000001 1.9999999999999998 19.000000000000004
  endloop
endfacet
facet normal 1.0 0.0 2.220446049250313e-16
  outer loop
    vertex 4.748957000000021 1.9999999999999998 3.0
    vertex 4.74895700000001 0.0 19.000000000000004
    vertex 4.748957000000021 0.0 3.0
  endloop
endfacet
facet normal 1.0 0.0 2.220446049250313e-16
  outer loop
    vertex 4.74895700000001 0.0 19.000000000000004
    vertex 4.748957000000021 1.9999999999999998 3.0
    vertex 4.74895700000001 1.9999999999999998 19.000000000000004
  endloop
endfacet
facet normal -1.0 0.0 -2.220446049250313e-16
  outer loop
    vertex 69.74895700000002 1.9999999999999998 19.000000000000018
    vertex 69.74895700000002 0.0 3.000000000000017
    vertex 69.74895700000002 0.0 19.000000000000018
  endloop
endfacet
facet normal -1.0 0.0 -2.220446049250313e-16
  outer loop
    vertex 69.74895700000002 0.0 3.000000000000017
    vertex 69.74895700000002 1.9999999999999998 19.000000000000018
    vertex 69.74895700000002 1.9999999999999998 3.000000000000017
  endloop
endfacet
facet normal -2.220446049250313e-16 0.0 1.0
  outer loop
    vertex 71.748957 59.00000000000001 33.00000000000002
    vertex 52.24895700000001 57.00000000000001 33.000000000000014
    vertex 71.748957 0.0 33.00000000000002
  endloop
endfacet
facet normal -2.220446049250313e-16 0.0 1.0
  outer loop
    vertex 52.24895700000001 57.00000000000001 33.000000000000014
    vertex 71.748957 59.00000000000001 33.00000000000002
    vertex 2.7489570000000136 59.00000000000001 33.0
  endloop
endfacet
facet normal -2.220446049250313e-16 0.0 1.0
  outer loop
    vertex 52.24895700000001 57.00000000000001 33.000000000000014
    vertex 2.7489570000000136 59.00000000000001 33.0
    vertex 22.24895700000001 57.00000000000001 33.00000000000001
  endloop
endfacet
facet normal -2.220446049250313e-16 0.0 1.0
  outer loop
    vertex 22.24895700000001 57.00000000000001 33.00000000000001
    vertex 2.7489570000000136 59.00000000000001 33.0
    vertex 22.24895700000001 17.000000000000007 33.00000000000001
  endloop
endfacet
facet normal -2.220446049250313e-16 0.0 1.0
  outer loop
    vertex 71.748957 0.0 33.00000000000002
    vertex 52.24895700000001 17.000000000000007 33.000000000000014
    vertex 2.7489570000000136 0.0 33.0
  endloop
endfacet
facet normal -2.220446049250313e-16 0.0 1.0
  outer loop
    vertex 52.24895700000001 17.000000000000007 33.000000000000014
    vertex 71.748957 0.0 33.00000000000002
    vertex 52.24895700000001 57.00000000000001 33.000000000000014
  endloop
endfacet
facet normal -2.220446049250313e-16 0.0 1.0
  outer loop
    vertex 2.7489570000000136 0.0 33.0
    vertex 52.24895700000001 17.000000000000007 33.000000000000014
    vertex 22.24895700000001 17.000000000000007 33.00000000000001
  endloop
endfacet
facet normal -2.220446049250313e-16 0.0 1.0
  outer loop
    vertex 2.7489570000000136 0.0 33.0
    vertex 22.24895700000001 17.000000000000007 33.00000000000001
    vertex 2.7489570000000136 59.00000000000001 33.0
  endloop
endfacet
facet normal -1.0 0.0 -2.220446049250313e-16
  outer loop
    vertex 52.24895700000001 57.00000000000001 33.000000000000014
    vertex 52.24895700000001 17.000000000000007 31.000000000000018
    vertex 52.24895700000001 17.000000000000007 33.000000000000014
  endloop
endfacet
facet normal -1.0 0.0 -2.220446049250313e-16
  outer loop
    vertex 52.24895700000001 17.000000000000007 31.000000000000018
    vertex 52.24895700000001 57.00000000000001 33.000000000000014
    vertex 52.24895700000001 57.00000000000001 31.000000000000018
  endloop
endfacet
facet normal 1.0 0.0 2.220446049250313e-16
  outer loop
    vertex 22.24895700000001 57.00000000000001 31.000000000000004
    vertex 22.24895700000001 17.000000000000007 33.00000000000001
    vertex 22.24895700000001 17.000000000000007 31.000000000000004
  endloop
endfacet
facet normal 1.0 0.0 2.220446049250313e-16
  outer loop
    vertex 22.24895700000001 17.000000000000007 33.00000000000001
    vertex 22.24895700000001 57.00000000000001 31.000000000000004
    vertex 22.24895700000001 57.00000000000001 33.00000000000001
  endloop
endfacet
facet normal 0.0 1.0 0.0
  outer loop
    vertex 52.24895700000001 17.000000000000007 31.000000000000018
    vertex 22.24895700000001 17.000000000000007 33.00000000000001
    vertex 52.24895700000001 17.000000000000007 33.000000000000014
  endloop
endfacet
facet normal 0.0 1.0 0.0
  outer loop
    vertex 22.24895700000001 17.000000000000007 33.00000000000001
    vertex 52.24895700000001 17.000000000000007 31.000000000000018
    vertex 22.24895700000001 17.000000000000007 31.000000000000004
  endloop
endfacet
facet normal 2.220446049250313e-16 0.0 -1.0
  outer loop
    vertex 69.74895700000002 1.9999999999999998 31.000000000000018
    vertex 52.24895700000001 17.000000000000007 31.000000000000018
    vertex 69.74895700000002 57.00000000000001 31.000000000000018
  endloop
endfacet
facet normal 2.220446049250313e-16 0.0 -1.0
  outer loop
    vertex 52.24895700000001 17.000000000000007 31.000000000000018
    vertex 69.74895700000002 1.9999999999999998 31.000000000000018
    vertex 4.74895700000001 1.9999999999999998 31.000000000000004
  endloop
endfacet
facet normal 2.220446049250313e-16 0.0 -1.0
  outer loop
    vertex 52.24895700000001 17.000000000000007 31.000000000000018
    vertex 4.74895700000001 1.9999999999999998 31.000000000000004
    vertex 22.24895700000001 17.000000000000007 31.000000000000004
  endloop
endfacet
facet normal 2.220446049250313e-16 0.0 -1.0
  outer loop
    vertex 22.24895700000001 17.000000000000007 31.000000000000004
    vertex 4.74895700000001 1.9999999999999998 31.000000000000004
    vertex 22.24895700000001 57.00000000000001 31.000000000000004
  endloop
endfacet
facet normal 2.220446049250313e-16 0.0 -1.0
  outer loop
    vertex 22.24895700000001 57.00000000000001 31.000000000000004
    vertex 4.74895700000001 1.9999999999999998 31.000000000000004
    vertex 4.74895700000001 57.00000000000001 31.000000000000004
  endloop
endfacet
facet normal 2.220446049250313e-16 0.0 -1.0
  outer loop
    vertex 52.24895700000001 57.00000000000001 31.000000000000018
    vertex 69.74895700000002 57.00000000000001 31.000000000000018
    vertex 52.24895700000001 17.000000000000007 31.000000000000018
  endloop
endfacet
facet normal -1.0 0.0 -2.220446049250313e-16
  outer loop
    vertex 2.7489570000000136 59.00000000000001 33.0
    vertex 2.7489570000000247 0.0 3.0
    vertex 2.7489570000000136 0.0 33.0
  endloop
endfacet
facet normal -1.0 0.0 -2.220446049250313e-16
  outer loop
    vertex 2.7489570000000247 0.0 3.0
    vertex 2.7489570000000136 59.00000000000001 33.0
    vertex 2.7489570000000247 59.00000000000001 3.0
  endloop
endfacet
facet normal 0.0 -1.0 -0.0
  outer loop
    vertex 2.7489570000000136 0.0 33.0
    vertex 4.74895700000001 0.0 19.000000000000004
    vertex 71.748957 0.0 33.00000000000002
  endloop
endfacet
facet normal 0.0 -1.0 -0.0
  outer loop
    vertex 4.74895700000001 0.0 19.000000000000004
    vertex 2.7489570000000136 0.0 33.0
    vertex 2.7489570000000247 0.0 3.0
  endloop
endfacet
facet normal 0.0 -1.0 -0.0
  outer loop
    vertex 4.74895700000001 0.0 19.000000000000004
    vertex 2.7489570000000247 0.0 3.0
    vertex 4.748957000000021 0.0 3.0
  endloop
endfacet
facet normal 0.0 -1.0 -0.0
  outer loop
    vertex 71.748957 0.0 33.00000000000002
    vertex 69.74895700000002 0.0 19.000000000000018
    vertex 71.74895700000002 0.0 3.000000000000017
  endloop
endfacet
facet normal 0.0 -1.0 -0.0
  outer loop
    vertex 69.74895700000002 0.0 19.000000000000018
    vertex 71.748957 0.0 33.00000000000002
    vertex 4.74895700000001 0.0 19.000000000000004
  endloop
endfacet
facet normal 0.0 -1.0 -0.0
  outer loop
    vertex 71.74895700000002 0.0 3.000000000000017
    vertex 69.74895700000002 0.0 19.000000000000018
    vertex 69.74895700000002 0.0 3.000000000000017
  endloop
endfacet
facet normal 1.0 0.0 2.220446049250313e-16
  outer loop
    vertex 71.74895700000002 59.00000000000001 3.000000000000017
    vertex 71.748957 0.0 33.00000000000002
    vertex 71.74895700000002 0.0 3.000000000000017
  endloop
endfacet
facet normal 1.0 0.0 2.220446049250313e-16
  outer loop
    vertex 71.748957 0.0 33.00000000000002
    vertex 71.74895700000002 59.00000000000001 3.000000000000017
    vertex 71.748957 59.00000000000001 33.00000000000002
  endloop
endfacet
facet normal 0.0 1.0 0.0
  outer loop
    vertex 71.748957 59.00000000000001 33.00000000000002
    vertex 69.74895700000002 59.00000000000001 19.000000000000018
    vertex 2.7489570000000136 59.00000000000001 33.0
  endloop
endfacet
facet normal 0.0 1.0 0.0
  outer loop
    vertex 69.74895700000002 59.00000000000001 19.000000000000018
    vertex 71.748957 59.00000000000001 33.00000000000002
    vertex 71.74895700000002 59.00000000000001 3.000000000000017
  endloop
endfacet
facet normal 0.0 1.0 0.0
  outer loop
    vertex 69.74895700000002 59.00000000000001 19.000000000000018
    vertex 71.74895700000002 59.00000000000001 3.000000000000017
    vertex 69.74895700000002 59.00000000000001 3.000000000000017
  endloop
endfacet
facet normal 0.0 1.0 0.0
  outer loop
    vertex 2.7489570000000136 59.00000000000001 33.0
    vertex 4.74895700000001 59.00000000000001 19.000000000000004
    vertex 2.7489570000000247 59.00000000000001 3.0
  endloop
endfacet
facet normal 0.0 1.0 0.0
  outer loop
    vertex 4.74895700000001 59.00000000000001 19.000000000000004
    vertex 2.7489570000000136 59.00000000000001 33.0
    vertex 69.74895700000002 59.00000000000001 19.000000000000018
  endloop
endfacet
facet normal 0.0 1.0 0.0
  outer loop
    vertex 2.7489570000000247 59.00000000000001 3.0
    vertex 4.74895700000001 59.00000000000001 19.000000000000004
    vertex 4.748957000000021 59.00000000000001 3.0
  endloop
endfacet
facet normal 2.220446049250313e-16 0.0 -1.0
  outer loop
    vertex 69.74895700000002 0.0 3.000000000000017
    vertex 71.74895700000002 59.00000000000001 3.000000000000017
    vertex 71.74895700000002 0.0 3.000000000000017
  endloop
endfacet
facet normal 2.220446049250313e-16 0.0 -1.0
  outer loop
    vertex 71.74895700000002 59.00000000000001 3.000000000000017
    vertex 69.74895700000002 0.0 3.000000000000017
    vertex 69.74895700000002 59.00000000000001 3.000000000000017
  endloop
endfacet
facet normal 2.220446049250313e-16 0.0 -1.0
  outer loop
    vertex 69.74895700000002 59.00000000000001 3.000000000000017
    vertex 69.74895700000002 0.0 3.000000000000017
    vertex 69.74895700000002 57.00000000000001 3.000000000000017
  endloop
endfacet
facet normal 2.220446049250313e-16 0.0 -1.0
  outer loop
    vertex 69.74895700000002 57.00000000000001 3.000000000000017
    vertex 69.74895700000002 0.0 3.000000000000017
    vertex 69.74895700000002 1.9999999999999998 3.000000000000017
  endloop
endfacet
facet normal 0.0 -1.0 -0.0
  outer loop
    vertex 4.74895700000001 57.00000000000001 19.000000000000004
    vertex 22.24895700000001 57.00000000000001 31.000000000000004
    vertex 4.74895700000001 57.00000000000001 31.000000000000004
  endloop
endfacet
facet normal 0.0 -1.0 -0.0
  outer loop
    vertex 22.24895700000001 57.00000000000001 31.000000000000004
    vertex 4.74895700000001 57.00000000000001 19.000000000000004
    vertex 52.24895700000001 57.00000000000001 31.000000000000018
  endloop
endfacet
facet normal 0.0 -1.0 -0.0
  outer loop
    vertex 52.24895700000001 57.00000000000001 31.000000000000018
    vertex 4.74895700000001 57.00000000000001 19.000000000000004
    vertex 69.74895700000002 57.00000000000001 31.000000000000018
  endloop
endfacet
facet normal 0.0 -1.0 -0.0
  outer loop
    vertex 69.74895700000002 57.00000000000001 31.000000000000018
    vertex 4.74895700000001 57.00000000000001 19.000000000000004
    vertex 69.74895700000002 57.00000000000001 19.000000000000018
  endloop
endfacet
facet normal 0.0 -1.0 -0.0
  outer loop
    vertex 22.24895700000001 57.00000000000001 31.000000000000004
    vertex 52.24895700000001 57.00000000000001 33.000000000000014
    vertex 22.24895700000001 57.00000000000001 33.00000000000001
  endloop
endfacet
facet normal 0.0 -1.0 -0.0
  outer loop
    vertex 52.24895700000001 57.00000000000001 33.000000000000014
    vertex 22.24895700000001 57.00000000000001 31.000000000000004
    vertex 52.24895700000001 57.00000000000001 31.000000000000018
  endloop
endfacet
facet normal 1.0 -0.0 2.220446049250313e-16
  outer loop
    vertex 4.748957000000021 57.00000000000001 3.0
    vertex 4.74895700000001 1.9999999999999998 19.000000000000004
    vertex 4.748957000000021 1.9999999999999998 3.0
  endloop
endfacet
facet normal 1.0 -0.0 2.220446049250313e-16
  outer loop
    vertex 4.74895700000001 1.9999999999999998 19.000000000000004
    vertex 4.748957000000021 57.00000000000001 3.0
    vertex 4.74895700000001 1.9999999999999998 31.000000000000004
  endloop
endfacet
facet normal 1.0 -0.0 2.220446049250313e-16
  outer loop
    vertex 4.74895700000001 1.9999999999999998 31.000000000000004
    vertex 4.748957000000021 57.00000000000001 3.0
    vertex 4.74895700000001 57.00000000000001 31.000000000000004
  endloop
endfacet
facet normal 1.0 -0.0 2.220446049250313e-16
  outer loop
    vertex 4.74895700000001 57.00000000000001 31.000000000000004
    vertex 4.748957000000021 57.00000000000001 3.0
    vertex 4.74895700000001 57.00000000000001 19.000000000000004
  endloop
endfacet
facet normal 0.0 1.0 0.0
  outer loop
    vertex 69.74895700000002 1.9999999999999998 19.000000000000018
    vertex 4.74895700000001 1.9999999999999998 31.000000000000004
    vertex 69.74895700000002 1.9999999999999998 31.000000000000018
  endloop
endfacet
facet normal 0.0 1.0 0.0
  outer loop
    vertex 4.74895700000001 1.9999999999999998 31.000000000000004
    vertex 69.74895700000002 1.9999999999999998 19.000000000000018
    vertex 4.74895700000001 1.9999999999999998 19.000000000000004
  endloop
endfacet
facet normal -1.0 0.0 -2.220446049250313e-16
  outer loop
    vertex 69.74895700000002 57.00000000000001 31.000000000000018
    vertex 69.74895700000002 1.9999999999999998 19.000000000000018
    vertex 69.74895700000002 1.9999999999999998 31.000000000000018
  endloop
endfacet
facet normal -1.0 0.0 -2.220446049250313e-16
  outer loop
    vertex 69.74895700000002 1.9999999999999998 19.000000000000018
    vertex 69.74895700000002 57.00000000000001 31.000000000000018
    vertex 69.74895700000002 1.9999999999999998 3.000000000000017
  endloop
endfacet
facet normal -1.0 0.0 -2.220446049250313e-16
  outer loop
    vertex 69.74895700000002 1.9999999999999998 3.000000000000017
    vertex 69.74895700000002 57.00000000000001 31.000000000000018
    vertex 69.74895700000002 57.00000000000001 3.000000000000017
  endloop
endfacet
facet normal -1.0 0.0 -2.220446049250313e-16
  outer loop
    vertex 69.74895700000002 57.00000000000001 3.000000000000017
    vertex 69.74895700000002 57.00000000000001 31.000000000000018
    vertex 69.74895700000002 57.00000000000001 19.000000000000018
  endloop
endfacet
facet normal 2.220446049250313e-16 0.0 -1.0
  outer loop
    vertex 2.7489570000000247 0.0 3.0
    vertex 4.748957000000021 1.9999999999999998 3.0
    vertex 4.748957000000021 0.0 3.0
  endloop
endfacet
facet normal 2.220446049250313e-16 0.0 -1.0
  outer loop
    vertex 4.748957000000021 1.9999999999999998 3.0
    vertex 2.7489570000000247 0.0 3.0
    vertex 4.748957000000021 57.00000000000001 3.0
  endloop
endfacet
facet normal 2.220446049250313e-16 0.0 -1.0
  outer loop
    vertex 4.748957000000021 57.00000000000001 3.0
    vertex 2.7489570000000247 0.0 3.0
    vertex 4.748957000000021 59.00000000000001 3.0
  endloop
endfacet
facet normal 2.220446049250313e-16 0.0 -1.0
  outer loop
    vertex 4.748957000000021 59.00000000000001 3.0
    vertex 2.7489570000000247 0.0 3.0
    vertex 2.7489570000000247 59.00000000000001 3.0
  endloop
endfacet
facet normal 2.220446049250313e-16 0.0 -1.0
  outer loop
    vertex 69.74895700000002 57.00000000000001 19.000000000000018
    vertex 4.74895700000001 59.00000000000001 19.000000000000004
    vertex 69.74895700000002 59.00000000000001 19.000000000000018
  endloop
endfacet
facet normal 2.220446049250313e-16 0.0 -1.0
  outer loop
    vertex 4.74895700000001 59.00000000000001 19.000000000000004
    vertex 69.74895700000002 57.00000000000001 19.000000000000018
    vertex 4.74895700000001 57.00000000000001 19.000000000000004
  endloop
endfacet
facet normal -1.0 8.812395257962196e-16 -2.220446049250313e-16
  outer loop
    vertex 69.74895700000002 59.00000000000001 19.000000000000018
    vertex 69.74895700000002 57.00000000000001 3.000000000000017
    vertex 69.74895700000002 57.00000000000001 19.000000000000018
  endloop
endfacet
facet normal -1.0 8.812395257962196e-16 -2.220446049250313e-16
  outer loop
    vertex 69.74895700000002 57.00000000000001 3.000000000000017
    vertex 69.74895700000002 59.00000000000001 19.000000000000018
    vertex 69.74895700000002 59.00000000000001 3.000000000000017
  endloop
endfacet
facet normal 0.0 0.0 -1.0
  outer loop
    vertex -3.524958103184872e-16 99.0 9.999999999999998
    vertex 9.875 93.00000000000001 9.999999999999998
    vertex -3.524958103184872e-16 59.00000000000001 9.999999999999998
  endloop
endfacet
facet normal 0.0 0.0 -1.0
  outer loop
    vertex 9.875 93.00000000000001 9.999999999999998
    vertex -3.524958103184872e-16 99.0 9.999999999999998
    vertex 74.0 99.0 9.999999999999998
  endloop
endfacet
facet normal 0.0 0.0 -1.0
  outer loop
    vertex 9.875 93.00000000000001 9.999999999999998
    vertex 74.0 99.0 9.999999999999998
    vertex 17.625 93.00000000000001 9.999999999999998
  endloop
endfacet
facet normal 0.0 0.0 -1.0
  outer loop
    vertex 17.625 93.00000000000001 9.999999999999998
    vertex 74.0 99.0 9.999999999999998
    vertex 21.5 93.00000000000001 9.999999999999998
  endloop
endfacet
facet normal 0.0 0.0 -1.0
  outer loop
    vertex 17.625 93.00000000000001 9.999999999999998
    vertex 21.5 93.00000000000001 9.999999999999998
    vertex 17.625 65.0 9.999999999999998
  endloop
endfacet
facet normal 0.0 0.0 -1.0
  outer loop
    vertex 21.5 93.00000000000001 9.999999999999998
    vertex 74.0 99.0 9.999999999999998
    vertex 29.250000000000004 93.00000000000001 9.999999999999998
  endloop
endfacet
facet normal 0.0 0.0 -1.0
  outer loop
    vertex 29.250000000000004 93.00000000000001 9.999999999999998
    vertex 74.0 99.0 9.999999999999998
    vertex 33.125 93.00000000000001 9.999999999999998
  endloop
endfacet
facet normal 0.0 0.0 -1.0
  outer loop
    vertex 29.250000000000004 93.00000000000001 9.999999999999998
    vertex 33.125 93.00000000000001 9.999999999999998
    vertex 29.250000000000004 65.0 9.999999999999998
  endloop
endfacet
facet normal 0.0 0.0 -1.0
  outer loop
    vertex 33.125 93.00000000000001 9.999999999999998
    vertex 74.0 99.0 9.999999999999998
    vertex 40.875 93.00000000000001 9.999999999999998
  endloop
endfacet
facet normal 0.0 0.0 -1.0
  outer loop
    vertex 40.875 93.00000000000001 9.999999999999998
    vertex 74.0 99.0 9.999999999999998
    vertex 44.75 93.00000000000001 9.999999999999998
  endloop
endfacet
facet normal 0.0 0.0 -1.0
  outer loop
    vertex 40.875 93.00000000000001 9.999999999999998
    vertex 44.75 93.00000000000001 9.999999999999998
    vertex 40.875 65.0 9.999999999999998
  endloop
endfacet
facet normal 0.0 0.0 -1.0
  outer loop
    vertex 44.75 93.00000000000001 9.999999999999998
    vertex 74.0 99.0 9.999999999999998
    vertex 52.49999999999999 93.00000000000001 9.999999999999998
  endloop
endfacet
facet normal 0.0 0.0 -1.0
  outer loop
    vertex 52.49999999999999 93.00000000000001 9.999999999999998
    vertex 74.0 99.0 9.999999999999998
    vertex 56.37499999999999 93.00000000000001 9.999999999999998
  endloop
endfacet
facet normal 0.0 0.0 -1.0
  outer loop
    vertex 52.49999999999999 93.00000000000001 9.999999999999998
    vertex 56.37499999999999 93.00000000000001 9.999999999999998
    vertex 52.49999999999999 65.0 9.999999999999998
  endloop
endfacet
facet normal 0.0 0.0 -1.0
  outer loop
    vertex 56.37499999999999 93.00000000000001 9.999999999999998
    vertex 74.0 99.0 9.999999999999998
    vertex 64.125 93.00000000000001 9.999999999999998
  endloop
endfacet
facet normal 0.0 0.0 -1.0
  outer loop
    vertex 64.125 93.00000000000001 9.999999999999998
    vertex 74.0 99.0 9.999999999999998
    vertex 64.125 65.0 9.999999999999998
  endloop
endfacet
facet normal 0.0 0.0 -1.0
  outer loop
    vertex -3.524958103184872e-16 59.00000000000001 9.999999999999998
    vertex 9.875 65.0 9.999999999999998
    vertex 74.0 59.00000000000001 9.999999999999998
  endloop
endfacet
facet normal 0.0 0.0 -1.0
  outer loop
    vertex 9.875 65.0 9.999999999999998
    vertex -3.524958103184872e-16 59.00000000000001 9.999999999999998
    vertex 9.875 93.00000000000001 9.999999999999998
  endloop
endfacet
facet normal 0.0 0.0 -1.0
  outer loop
    vertex 74.0 59.00000000000001 9.999999999999998
    vertex 9.875 65.0 9.999999999999998
    vertex 17.625 65.0 9.999999999999998
  endloop
endfacet
facet normal 0.0 0.0 -1.0
  outer loop
    vertex 74.0 59.00000000000001 9.999999999999998
    vertex 17.625 65.0 9.999999999999998
    vertex 21.5 65.0 9.999999999999998
  endloop
endfacet
facet normal 0.0 0.0 -1.0
  outer loop
    vertex 21.5 65.0 9.999999999999998
    vertex 17.625 65.0 9.999999999999998
    vertex 21.5 93.00000000000001 9.999999999999998
  endloop
endfacet
facet normal 0.0 0.0 -1.0
  outer loop
    vertex 74.0 59.00000000000001 9.999999999999998
    vertex 21.5 65.0 9.999999999999998
    vertex 29.250000000000004 65.0 9.999999999999998
  endloop
endfacet
facet normal 0.0 0.0 -1.0
  outer loop
    vertex 74.0 59.00000000000001 9.999999999999998
    vertex 29.250000000000004 65.0 9.999999999999998
    vertex 33.125 65.0 9.999999999999998
  endloop
endfacet
facet normal 0.0 0.0 -1.0
  outer loop
    vertex 33.125 65.0 9.999999999999998
    vertex 29.250000000000004 65.0 9.999999999999998
    vertex 33.125 93.00000000000001 9.999999999999998
  endloop
endfacet
facet normal 0.0 0.0 -1.0
  outer loop
    vertex 74.0 59.00000000000001 9.999999999999998
    vertex 33.125 65.0 9.999999999999998
    vertex 40.875 65.0 9.999999999999998
  endloop
endfacet
facet normal 0.0 0.0 -1.0
  outer loop
    vertex 74.0 59.00000000000001 9.999999999999998
    vertex 40.875 65.0 9.999999999999998
    vertex 44.75 65.0 9.999999999999998
  endloop
endfacet
facet normal 0.0 0.0 -1.0
  outer loop
    vertex 44.75 65.0 9.999999999999998
    vertex 40.875 65.0 9.999999999999998
    vertex 44.75 93.00000000000001 9.999999999999998
  endloop
endfacet
facet normal 0.0 0.0 -1.0
  outer loop
    vertex 74.0 59.00000000000001 9.999999999999998
    vertex 44.75 65.0 9.999999999999998
    vertex 52.49999999999999 65.0 9.999999999999998
  endloop
endfacet
facet normal 0.0 0.0 -1.0
  outer loop
    vertex 74.0 59.00000000000001 9.999999999999998
    vertex 52.49999999999999 65.0 9.999999999999998
    vertex 56.37499999999999 65.0 9.999999999999998
  endloop
endfacet
facet normal 0.0 0.0 -1.0
  outer loop
    vertex 56.37499999999999 65.0 9.999999999999998
    vertex 52.49999999999999 65.0 9.999999999999998
    vertex 56.37499999999999 93.00000000000001 9.999999999999998
  endloop
endfacet
facet normal 0.0 0.0 -1.0
  outer loop
    vertex 74.0 59.00000000000001 9.999999999999998
    vertex 56.37499999999999 65.0 9.999999999999998
    vertex 64.125 65.0 9.999999999999998
  endloop
endfacet
facet normal 0.0 0.0 -1.0
  outer loop
    vertex 74.0 59.00000000000001 9.999999999999998
    vertex 64.125 65.0 9.999999999999998
    vertex 74.0 99.0 9.999999999999998
  endloop
endfacet
facet normal 0.0 -1.0 0.0
  outer loop
    vertex 74.0 59.00000000000001 11.999999999999998
    vertex -3.524958103184872e-16 59.00000000000001 9.999999999999998
    vertex 74.0 59.00000000000001 9.999999999999998
  endloop
endfacet
facet normal 0.0 -1.0 0.0
  outer loop
    vertex -3.524958103184872e-16 59.00000000000001 9.999999999999998
    vertex 74.0 59.00000000000001 11.999999999999998
    vertex -3.524958103184872e-16 59.00000000000001 11.999999999999998
  endloop
endfacet
facet normal -1.0 0.0 0.0
  outer loop
    vertex -3.524958103184872e-16 99.0 11.999999999999998
    vertex -3.524958103184872e-16 59.00000000000001 9.999999999999998
    vertex -3.524958103184872e-16 59.00000000000001 11.999999999999998
  endloop
endfacet
facet normal -1.0 0.0 0.0
  outer loop
    vertex -3.524958103184872e-16 59.00000000000001 9.999999999999998
    vertex -3.524958103184872e-16 99.0 11.999999999999998
    vertex -3.524958103184872e-16 99.0 9.999999999999998
  endloop
endfacet
facet normal 0.0 1.0 0.0
  outer loop
    vertex -3.524958103184872e-16 99.0 11.999999999999998
    vertex 74.0 99.0 9.999999999999998
    vertex -3.524958103184872e-16 99.0 9.999999999999998
  endloop
endfacet
facet normal 0.0 1.0 0.0
  outer loop
    vertex 74.0 99.0 9.999999999999998
    vertex -3.524958103184872e-16 99.0 11.999999999999998
    vertex 74.0 99.0 11.999999999999998
  endloop
endfacet
facet normal 1.0 0.0 0.0
  outer loop
    vertex 74.0 99.0 9.999999999999998
    vertex 74.0 59.00000000000001 11.999999999999998
    vertex 74.0 59.00000000000001 9.999999999999998
  endloop
endfacet
facet normal 1.0 0.0 0.0
  outer loop
    vertex 74.0 59.00000000000001 11.999999999999998
    vertex 74.0 99.0 9.999999999999998
    vertex 74.0 99.0 11.999999999999998
  endloop
endfacet
facet normal 0.0 1.0 0.0
  outer loop
    vertex 9.875 65.0 11.999999999999998
    vertex 17.625 65.0 9.999999999999998
    vertex 9.875 65.0 9.999999999999998
  endloop
endfacet
facet normal 0.0 1.0 0.0
  outer loop
    vertex 17.625 65.0 9.999999999999998
    vertex 9.875 65.0 11.999999999999998
    vertex 17.625 65.0 11.999999999999998
  endloop
endfacet
facet normal 1.0 0.0 0.0
  outer loop
    vertex 9.875 93.00000000000001 9.999999999999998
    vertex 9.875 65.0 11.999999999999998
    vertex 9.875 65.0 9.999999999999998
  endloop
endfacet
facet normal 1.0 0.0 0.0
  outer loop
    vertex 9.875 65.0 11.999999999999998
    vertex 9.875 93.00000000000001 9.999999999999998
    vertex 9.875 93.00000000000001 11.999999999999998
  endloop
endfacet
facet normal 0.0 1.0 0.0
  outer loop
    vertex 21.5 65.0 11.999999999999998
    vertex 29.250000000000004 65.0 9.999999999999998
    vertex 21.5 65.0 9.999999999999998
  endloop
endfacet
facet normal 0.0 1.0 0.0
  outer loop
    vertex 29.250000000000004 65.0 9.999999999999998
    vertex 21.5 65.0 11.999999999999998
    vertex 29.250000000000004 65.0 11.999999999999998
  endloop
endfacet
facet normal -1.0 0.0 0.0
  outer loop
    vertex 29.250000000000004 93.00000000000001 11.999999999999998
    vertex 29.250000000000004 65.0 9.999999999999998
    vertex 29.250000000000004 65.0 11.999999999999998
  endloop
endfacet
facet normal -1.0 0.0 0.0
  outer loop
    vertex 29.250000000000004 65.0 9.999999999999998
    vertex 29.250000000000004 93.00000000000001 11.999999999999998
    vertex 29.250000000000004 93.00000000000001 9.999999999999998
  endloop
endfacet
facet normal -0.0 -1.0 -0.0
  outer loop
    vertex 29.250000000000004 93.00000000000001 11.999999999999998
    vertex 21.5 93.00000000000001 9.999999999999998
    vertex 29.250000000000004 93.00000000000001 9.999999999999998
  endloop
endfacet
facet normal -0.0 -1.0 -0.0
  outer loop
    vertex 21.5 93.00000000000001 9.999999999999998
    vertex 29.250000000000004 93.00000000000001 11.999999999999998
    vertex 21.5 93.00000000000001 11.999999999999998
  endloop
endfacet
facet normal 1.0 0.0 0.0
  outer loop
    vertex 21.5 93.00000000000001 9.999999999999998
    vertex 21.5 65.0 11.999999999999998
    vertex 21.5 65.0 9.999999999999998
  endloop
endfacet
facet normal 1.0 0.0 0.0
  outer loop
    vertex 21.5 65.0 11.999999999999998
    vertex 21.5 93.00000000000001 9.999999999999998
    vertex 21.5 93.00000000000001 11.999999999999998
  endloop
endfacet
facet normal 0.0 -1.0 0.0
  outer loop
    vertex 64.125 93.00000000000001 11.999999999999998
    vertex 56.37499999999999 93.00000000000001 9.999999999999998
    vertex 64.125 93.00000000000001 9.999999999999998
  endloop
endfacet
facet normal 0.0 -1.0 0.0
  outer loop
    vertex 56.37499999999999 93.00000000000001 9.999999999999998
    vertex 64.125 93.00000000000001 11.999999999999998
    vertex 56.37499999999999 93.00000000000001 11.999999999999998
  endloop
endfacet
facet normal -1.0 0.0 0.0
  outer loop
    vertex 64.125 93.00000000000001 11.999999999999998
    vertex 64.125 65.0 9.999999999999998
    vertex 64.125 65.0 11.999999999999998
  endloop
endfacet
facet normal -1.0 0.0 0.0
  outer loop
    vertex 64.125 65.0 9.999999999999998
    vertex 64.125 93.00000000000001 11.999999999999998
    vertex 64.125 93.00000000000001 9.999999999999998
  endloop
endfacet
facet normal -0.0 -1.0 -0.0
  outer loop
    vertex 52.49999999999999 93.00000000000001 11.999999999999998
    vertex 44.75 93.00000000000001 9.999999999999998
    vertex 52.49999999999999 93.00000000000001 9.999999999999998
  endloop
endfacet
facet normal -0.0 -1.0 -0.0
  outer loop
    vertex 44.75 93.00000000000001 9.999999999999998
    vertex 52.49999999999999 93.00000000000001 11.999999999999998
    vertex 44.75 93.00000000000001 11.999999999999998
  endloop
endfacet
facet normal 1.0 0.0 0.0
  outer loop
    vertex 44.75 93.00000000000001 9.999999999999998
    vertex 44.75 65.0 11.999999999999998
    vertex 44.75 65.0 9.999999999999998
  endloop
endfacet
facet normal 1.0 0.0 0.0
  outer loop
    vertex 44.75 65.0 11.999999999999998
    vertex 44.75 93.00000000000001 9.999999999999998
    vertex 44.75 93.00000000000001 11.999999999999998
  endloop
endfacet
facet normal 0.0 1.0 0.0
  outer loop
    vertex 44.75 65.0 11.999999999999998
    vertex 52.49999999999999 65.0 9.999999999999998
    vertex 44.75 65.0 9.999999999999998
  endloop
endfacet
facet normal 0.0 1.0 0.0
  outer loop
    vertex 52.49999999999999 65.0 9.999999999999998
    vertex 44.75 65.0 11.999999999999998
    vertex 52.49999999999999 65.0 11.999999999999998
  endloop
endfacet
facet normal -1.0 0.0 0.0
  outer loop
    vertex 52.49999999999999 93.00000000000001 11.999999999999998
    vertex 52.49999999999999 65.0 9.999999999999998
    vertex 52.49999999999999 65.0 11.999999999999998
  endloop
endfacet
facet normal -1.0 0.0 0.0
  outer loop
    vertex 52.49999999999999 65.0 9.999999999999998
    vertex 52.49999999999999 93.00000000000001 11.999999999999998
    vertex 52.49999999999999 93.00000000000001 9.999999999999998
  endloop
endfacet
facet normal -1.0 0.0 0.0
  outer loop
    vertex 40.875 93.00000000000001 11.999999999999998
    vertex 40.875 65.0 9.999999999999998
    vertex 40.875 65.0 11.999999999999998
  endloop
endfacet
facet normal -1.0 0.0 0.0
  outer loop
    vertex 40.875 65.0 9.999999999999998
    vertex 40.875 93.00000000000001 11.999999999999998
    vertex 40.875 93.00000000000001 9.999999999999998
  endloop
endfacet
facet normal -0.0 -1.0 -0.0
  outer loop
    vertex 40.875 93.00000000000001 11.999999999999998
    vertex 33.125 93.00000000000001 9.999999999999998
    vertex 40.875 93.00000000000001 9.999999999999998
  endloop
endfacet
facet normal -0.0 -1.0 -0.0
  outer loop
    vertex 33.125 93.00000000000001 9.999999999999998
    vertex 40.875 93.00000000000001 11.999999999999998
    vertex 33.125 93.00000000000001 11.999999999999998
  endloop
endfacet
facet normal 1.0 0.0 0.0
  outer loop
    vertex 33.125 93.00000000000001 9.999999999999998
    vertex 33.125 65.0 11.999999999999998
    vertex 33.125 65.0 9.999999999999998
  endloop
endfacet
facet normal 1.0 0.0 0.0
  outer loop
    vertex 33.125 65.0 11.999999999999998
    vertex 33.125 93.00000000000001 9.999999999999998
    vertex 33.125 93.00000000000001 11.999999999999998
  endloop
endfacet
facet normal 0.0 1.0 0.0
  outer loop
    vertex 33.125 65.0 11.999999999999998
    vertex 40.875 65.0 9.999999999999998
    vertex 33.125 65.0 9.999999999999998
  endloop
endfacet
facet normal 0.0 1.0 0.0
  outer loop
    vertex 40.875 65.0 9.999999999999998
    vertex 33.125 65.0 11.999999999999998
    vertex 40.875 65.0 11.999999999999998
  endloop
endfacet
facet normal 0.0 0.0 1.0
  outer loop
    vertex -3.524958103184872e-16 59.00000000000001 11.999999999999998
    vertex 9.875 65.0 11.999999999999998
    vertex -3.524958103184872e-16 99.0 11.999999999999998
  endloop
endfacet
facet normal 0.0 0.0 1.0
  outer loop
    vertex 9.875 65.0 11.999999999999998
    vertex -3.524958103184872e-16 59.00000000000001 11.999999999999998
    vertex 74.0 59.00000000000001 11.999999999999998
  endloop
endfacet
facet normal 0.0 0.0 1.0
  outer loop
    vertex 9.875 65.0 11.999999999999998
    vertex 74.0 59.00000000000001 11.999999999999998
    vertex 17.625 65.0 11.999999999999998
  endloop
endfacet
facet normal 0.0 0.0 1.0
  outer loop
    vertex 17.625 65.0 11.999999999999998
    vertex 74.0 59.00000000000001 11.999999999999998
    vertex 21.5 65.0 11.999999999999998
  endloop
endfacet
facet normal 0.0 0.0 1.0
  outer loop
    vertex 17.625 65.0 11.999999999999998
    vertex 21.5 65.0 11.999999999999998
    vertex 17.625 93.00000000000001 11.999999999999998
  endloop
endfacet
facet normal 0.0 0.0 1.0
  outer loop
    vertex 21.5 65.0 11.999999999999998
    vertex 74.0 59.00000000000001 11.999999999999998
    vertex 29.250000000000004 65.0 11.999999999999998
  endloop
endfacet
facet normal 0.0 0.0 1.0
  outer loop
    vertex 29.250000000000004 65.0 11.999999999999998
    vertex 74.0 59.00000000000001 11.999999999999998
    vertex 33.125 65.0 11.999999999999998
  endloop
endfacet
facet normal 0.0 0.0 1.0
  outer loop
    vertex 29.250000000000004 65.0 11.999999999999998
    vertex 33.125 65.0 11.999999999999998
    vertex 29.250000000000004 93.00000000000001 11.999999999999998
  endloop
endfacet
facet normal 0.0 0.0 1.0
  outer loop
    vertex 33.125 65.0 11.999999999999998
    vertex 74.0 59.00000000000001 11.999999999999998
    vertex 40.875 65.0 11.999999999999998
  endloop
endfacet
facet normal 0.0 0.0 1.0
  outer loop
    vertex 40.875 65.0 11.999999999999998
    vertex 74.0 59.00000000000001 11.999999999999998
    vertex 44.75 65.0 11.999999999999998
  endloop
endfacet
facet normal 0.0 0.0 1.0
  outer loop
    vertex 40.875 65.0 11.999999999999998
    vertex 44.75 65.0 11.999999999999998
    vertex 40.875 93.00000000000001 11.999999999999998
  endloop
endfacet
facet normal 0.0 0.0 1.0
  outer loop
    vertex 44.75 65.0 11.999999999999998
    vertex 74.0 59.00000000000001 11.999999999999998
    vertex 52.49999999999999 65.0 11.999999999999998
  endloop
endfacet
facet normal 0.0 0.0 1.0
  outer loop
    vertex 52.49999999999999 65.0 11.999999999999998
    vertex 74.0 59.00000000000001 11.999999999999998
    vertex 56.37499999999999 65.0 11.999999999999998
  endloop
endfacet
facet normal 0.0 0.0 1.0
  outer loop
    vertex 52.49999999999999 65.0 11.999999999999998
    vertex 56.37499999999999 65.0 11.999999999999998
    vertex 52.49999999999999 93.00000000000001 11.999999999999998
  endloop
endfacet
facet normal 0.0 0.0 1.0
  outer loop
    vertex 56.37499999999999 65.0 11.999999999999998
    vertex 74.0 59.00000000000001 11.999999999999998
    vertex 64.125 65.0 11.999999999999998
  endloop
endfacet
facet normal 0.0 0.0 1.0
  outer loop
    vertex 64.125 65.0 11.999999999999998
    vertex 74.0 59.00000000000001 11.999999999999998
    vertex 64.125 93.00000000000001 11.999999999999998
  endloop
endfacet
facet normal 0.0 0.0 1.0
  outer loop
    vertex -3.524958103184872e-16 99.0 11.999999999999998
    vertex 9.875 93.00000000000001 11.999999999999998
    vertex 74.0 99.0 11.999999999999998
  endloop
endfacet
facet normal 0.0 0.0 1.0
  outer loop
    vertex 9.875 93.00000000000001 11.999999999999998
    vertex -3.524958103184872e-16 99.0 11.999999999999998
    vertex 9.875 65.0 11.999999999999998
  endloop
endfacet
facet normal 0.0 0.0 1.0
  outer loop
    vertex 74.0 99.0 11.999999999999998
    vertex 9.875 93.00000000000001 11.999999999999998
    vertex 17.625 93.00000000000001 11.999999999999998
  endloop
endfacet
facet normal 0.0 0.0 1.0
  outer loop
    vertex 74.0 99.0 11.999999999999998
    vertex 17.625 93.00000000000001 11.999999999999998
    vertex 21.5 93.00000000000001 11.999999999999998
  endloop
endfacet
facet normal 0.0 0.0 1.0
  outer loop
    vertex 21.5 93.00000000000001 11.999999999999998
    vertex 17.625 93.00000000000001 11.999999999999998
    vertex 21.5 65.0 11.999999999999998
  endloop
endfacet
facet normal 0.0 0.0 1.0
  outer loop
    vertex 74.0 99.0 11.999999999999998
    vertex 21.5 93.00000000000001 11.999999999999998
    vertex 29.250000000000004 93.00000000000001 11.999999999999998
  endloop
endfacet
facet normal 0.0 0.0 1.0
  outer loop
    vertex 74.0 99.0 11.999999999999998
    vertex 29.250000000000004 93.00000000000001 11.999999999999998
    vertex 33.125 93.00000000000001 11.999999999999998
  endloop
endfacet
facet normal 0.0 0.0 1.0
  outer loop
    vertex 33.125 93.00000000000001 11.999999999999998
    vertex 29.250000000000004 93.00000000000001 11.999999999999998
    vertex 33.125 65.0 11.999999999999998
  endloop
endfacet
facet normal 0.0 0.0 1.0
  outer loop
    vertex 74.0 99.0 11.999999999999998
    vertex 33.125 93.00000000000001 11.999999999999998
    vertex 40.875 93.00000000000001 11.999999999999998
  endloop
endfacet
facet normal 0.0 0.0 1.0
  outer loop
    vertex 74.0 99.0 11.999999999999998
    vertex 40.875 93.00000000000001 11.999999999999998
    vertex 44.75 93.00000000000001 11.999999999999998
  endloop
endfacet
facet normal 0.0 0.0 1.0
  outer loop
    vertex 44.75 93.00000000000001 11.999999999999998
    vertex 40.875 93.00000000000001 11.999999999999998
    vertex 44.75 65.0 11.999999999999998
  endloop
endfacet
facet normal 0.0 0.0 1.0
  outer loop
    vertex 74.0 99.0 11.999999999999998
    vertex 44.75 93.00000000000001 11.999999999999998
    vertex 52.49999999999999 93.00000000000001 11.999999999999998
  endloop
endfacet
facet normal 0.0 0.0 1.0
  outer loop
    vertex 74.0 99.0 11.999999999999998
    vertex 52.49999999999999 93.00000000000001 11.999999999999998
    vertex 56.37499999999999 93.00000000000001 11.999999999999998
  endloop
endfacet
facet normal 0.0 0.0 1.0
  outer loop
    vertex 56.37499999999999 93.00000000000001 11.999999999999998
    vertex 52.49999999999999 93.00000000000001 11.999999999999998
    vertex 56.37499999999999 65.0 11.999999999999998
  endloop
endfacet
facet normal 0.0 0.0 1.0
  outer loop
    vertex 74.0 99.0 11.999999999999998
    vertex 56.37499999999999 93.00000000000001 11.999999999999998
    vertex 64.125 93.00000000000001 11.999999999999998
  endloop
endfacet
facet normal 0.0 0.0 1.0
  outer loop
    vertex 74.0 99.0 11.999999999999998
    vertex 64.125 93.00000000000001 11.999999999999998
    vertex 74.0 59.00000000000001 11.999999999999998
  endloop
endfacet
facet normal -1.0 0.0 0.0
  outer loop
    vertex 17.625 93.00000000000001 11.999999999999998
    vertex 17.625 65.0 9.999999999999998
    vertex 17.625 65.0 11.999999999999998
  endloop
endfacet
facet normal -1.0 0.0 0.0
  outer loop
    vertex 17.625 65.0 9.999999999999998
    vertex 17.625 93.00000000000001 11.999999999999998
    vertex 17.625 93.00000000000001 9.999999999999998
  endloop
endfacet
facet normal 0.0 -1.0 0.0
  outer loop
    vertex 17.625 93.00000000000001 11.999999999999998
    vertex 9.875 93.00000000000001 9.999999999999998
    vertex 17.625 93.00000000000001 9.999999999999998
  endloop
endfacet
facet normal 0.0 -1.0 0.0
  outer loop
    vertex 9.875 93.00000000000001 9.999999999999998
    vertex 17.625 93.00000000000001 11.999999999999998
    vertex 9.875 93.00000000000001 11.999999999999998
  endloop
endfacet
facet normal 1.0 0.0 0.0
  outer loop
    vertex 56.37499999999999 93.00000000000001 9.999999999999998
    vertex 56.37499999999999 65.0 11.999999999999998
    vertex 56.37499999999999 65.0 9.999999999999998
  endloop
endfacet
facet normal 1.0 0.0 0.0
  outer loop
    vertex 56.37499999999999 65.0 11.999999999999998
    vertex 56.37499999999999 93.00000000000001 9.999999999999998
    vertex 56.37499999999999 93.00000000000001 11.999999999999998
  endloop
endfacet
facet normal 0.0 1.0 0.0
  outer loop
    vertex 56.37499999999999 65.0 11.999999999999998
    vertex 64.125 65.0 9.999999999999998
    vertex 56.37499999999999 65.0 9.999999999999998
  endloop
endfacet
facet normal 0.0 1.0 0.0
  outer loop
    vertex 64.125 65.0 9.999999999999998
    vertex 56.37499999999999 65.0 11.999999999999998
    vertex 64.125 65.0 11.999999999999998
  endloop
endfacet
endsolid Tricorder_Assembled
